<?xml version="1.0" encoding="UTF-8" standalone="no"?>
<svg id="svg4218" xmlns:rdf="http://www.w3.org/1999/02/22-rdf-syntax-ns#" xmlns="http://www.w3.org/2000/svg" height="960" viewBox="0 0 539.0625 960" width="539.06" version="1.1" xmlns:cc="http://creativecommons.org/ns#" xmlns:dc="http://purl.org/dc/elements/1.1/">
<path id="path4228" d="m450.94 958.82c-12.34-1.5953-14.419-10.007-4.442-17.969 5.0886-4.0609 6.0111-5.1482 9.0578-10.676 3.6438-6.6112 5.0634-8.9467 5.8046-9.5491 1.1146-0.90585 1.6586-4.3098 2.2476-14.062 0.68535-11.348 1.3875-15.003 4.814-25.054 1.3666-4.0092 2.5581-8.0749 2.6476-9.035 0.0895-0.96007 1.1868-2.5814 2.4384-3.6029 1.8315-1.4948 1.9097-1.7123 0.40058-1.1142-6.0221 2.3867-24.076 0.90884-25.217-2.0643-0.42922-1.1185-0.93371-1.185-2.5259-0.33289-3.1611 1.6918-4.7722-0.59371-2.0101-2.8515 1.167-0.95398 2.5916-1.8911 3.1656-2.0824 3.7934-1.2645 3.6533-16.101-0.23513-24.903-0.97412-2.2052-1.7711-5.3053-1.7711-6.8892 0-4.4386-6.6505-17.219-14.031-26.965-10.156-13.41-17.565-30.295-18.557-42.293-0.49992-6.0432-0.55355-6.1412-6.4612-11.807-6.0228-5.7765-7.6662-6.8182-17.487-11.085-2.9934-1.3004-7.6341-4.2133-10.312-6.473-2.6784-2.2597-5.5605-4.4871-6.4047-4.9499-3.1764-1.7414-8.4535-9.0938-7.939-11.061 0.27712-1.0597-0.51905-4.0236-1.7808-6.6297-2.8793-5.9468-5.1516-14.707-5.1516-19.862 0-5.1744-4.3321-19.01-6.7049-21.414-2.0267-2.0532-1.8094 1.271 0.35896 5.4913 0.59331 1.1547 0.54962 2.0863-0.12968 2.7656-1.758 1.758-2.9884-0.55292-5.419-10.178-2.0713-8.202-5.3113-15.296-7.6448-16.738-0.47601-0.29419-1.7962 1.6743-2.9339 4.3743-1.1376 2.7001-3.7319 7.3159-5.7651 10.257-2.0332 2.9415-4.3377 6.8821-5.121 8.7569l-1.4243 3.4088 2.9474-0.64735c4.3223-0.94934 3.3955 2.017-1.6992 5.4386-2.1949 1.4741-5.748 5.285-7.8957 8.4688-3.8888 5.7645-5.0668 7.0172-9.741 10.358-2.6713 1.9094-4.6536 5.9276-6.5333 13.243-0.66246 2.5781-1.4792 5.5613-1.815 6.6292-0.46464 1.4779 0.41294 3.0251 3.6738 6.4773 5.7733 6.1119 5.6104 6.6488-5.7806 19.05-4.1256 4.4914-7.5929 11.658-3.8102 7.8751 0.61875-0.61875 2.2008-1.111 3.5156-1.0938l2.3906 0.0312-2.1094 1.7597c-2.37 1.9771-2.6867 3.3808-0.91615 4.0602 1.1433 0.43872 1.1767 1.6631 0.49123 18.024-0.0648 1.5469 0.0295 3.8672 0.20965 5.1562 0.45857 3.282-0.67976 11.637-3.44 25.25-2.5047 12.352-1.86 22.498 2.089 32.875 1.3298 3.4943 1.3356 3.5623 1.387 16.219 0.0275 6.7669 0.33783 8.5108 1.7263 9.6996 1.6292 1.3949 2.0326 7.3276 0.65046 9.5641-0.70851 1.1464-8.6245 4.184-18.675 7.1662-7.2512 2.1515-8.1253 2.6353-7.0666 3.9109 0.99665 1.2009 0.95513 1.6431-0.23711 2.5261-2.4724 1.8312 0.20837 22.061 3.9954 30.15 1.1201 2.3924 1.1266 3.5198 0.0881 15.152-0.77929 8.7294-1.0981 9.8242-3.7364 12.829-1.5864 1.8068-3.1666 4.1742-3.5115 5.2609-0.53635 1.6898-1.3282 1.9633-5.4734 1.8904-2.6655-0.0469-7.1666-0.0722-10.003-0.0572-8.6915 0.0478-10.597-0.63432-9.9055-3.546 1.4427-6.0786 1.9602-5.8766-9.782-3.8188-4.9112 0.86072-8.0387 2.0073-10.372 3.8025-1.8376 1.4136-4.5798 3.1194-6.0938 3.7905-1.5139 0.67116-3.31 1.7526-3.9914 2.4031-3.1878 3.0437-17.626 1.2364-27.824-3.4829-2.0261-0.93759-17.421-5.1291-25.781-7.0195-10.033-2.2684-15.511-7.9291-11.953-12.35 5.204-6.4654 8.9905-7.3672 21.206-5.0506 6.5382 1.2399 25.334-4.6645 30.853-9.6921 1.9184-1.7476 7.2849-6.0244 11.926-9.5042 8.5861-6.4383 16.406-13.751 16.406-15.342 0-0.48374 1.3711-1.7576 3.0469-2.8308s2.5195-1.9584 1.875-1.9671c-0.64449-0.009-1.1718-0.77501-1.1718-1.7031 0-0.92812 0.52734-2.2148 1.1719-2.8594 0.64454-0.64454 1.1828-1.4672 1.1962-1.8281 0.0927-2.497 3.6396-5.7522 5.7033-5.2342 3.9962 1.003 2.3701-1.2294-2.3858-3.2754-2.5448-1.0947-5.0278-1.9904-5.5178-1.9904-0.49002 0-2.049-0.60081-3.4644-1.3351-1.4154-0.73433-4.7332-1.6266-7.3728-1.9829-2.6396-0.35629-5.5376-1.036-6.4399-1.5104-1.6875-0.88719-1.8043-0.68874-2.0138 3.4222-0.0621 1.2181-0.75243 1.875-1.9706 1.875-1.5879 0-1.8517-0.57417-1.7225-3.75 0.50294-12.369 1.6271-15.838 7.393-22.817 5.5718-6.7437 6.8154-10.56 4.562-13.999-1.8301-2.7931-0.43968-5.015 1.9153-3.0605 1.9681 1.6333 1.9515-0.38324-0.0344-4.1858-0.91957-1.7608-1.2526-3.8642-0.89055-5.625 0.31807-1.5469 0.76395-12.516 0.99086-24.375 0.54812-28.648 2.2522-41.436 6.7076-50.337 0.85373-1.7054 1.9152-3.8533 2.3587-4.773 1.0105-2.0951-0.536-8.0974-2.859-11.096-0.95088-1.2275-2.0315-3.469-2.4014-4.9811-0.36989-1.5121-1.4336-4.3246-2.3639-6.25-1.4899-3.0837-1.5268-3.6653-0.31003-4.8821 1.082-1.082 1.1973-2.267 0.53215-5.4687-0.47657-2.2939-0.50614-5.9385-0.0674-8.3061 0.43-2.3203 0.57581-5.3383 0.32402-6.7066-0.53215-2.8921 1.8744-8.306 6.6421-14.942 3.418-4.7576 6.5942-6.2583 5.6565-2.6726-0.39497 1.5104-0.23791 1.7075 0.72434 0.90887 1.7432-1.4467 2.3253-5.4606 0.95665-6.5965-1.9415-1.6113-2.3585-7.59-0.91739-13.151 0.74949-2.8924 1.6027-7.7591 1.896-10.815 0.29331-3.0558 0.62025-6.3997 0.72652-7.4309 0.10628-1.0312 0.58256-2.4846 1.0584-3.2297 0.47585-0.74507 0.89492-4.1201 0.93126-7.5 0.0581-5.4037 0.29236-6.178 1.9411-6.4162 1.9851-0.2868 4.2188-4.0345 4.2188-7.0783 0-1.0005 0.6577-2.3 1.4616-2.8878 1.5275-1.1169 0.95227-3.6413-1.6637-7.3011-0.88158-1.2334-0.89755-2.524-0.0696-5.625 0.89436-3.3497 0.83588-4.2881-0.3489-5.5978-2.5872-2.8599 1.9942-10.931 8.5894-15.133 5.0388-3.2098 9.7332-8.2551 8.1973-8.8099-0.64774-0.234-0.93925-0.81129-0.64779-1.2829 0.29143-0.47158-0.12781-0.85743-0.93168-0.85743s-1.4616 0.42187-1.4616 0.9375c0 2.115-6.9746-0.38891-9.4748-3.4015-1.2638-1.5228 1.8858-5.244 8.5373-10.087 1.5285-1.1128 1.9361-1.8628 1.1719-2.156-1.6741-0.64234-1.4472-2.8586 0.39832-3.8914 0.86361-0.4833 1.6666-1.4535 1.7844-2.156 0.11782-0.70249 0.47482-1.9211 0.79334-2.708 0.4791-1.1837-0.33506-1.4266-4.7145-1.4062-5.1454 0.0238-5.8618-0.35783-7.5339-4.0134-0.0725-0.15838-2.8146-0.49394-6.0938-0.7457-11.073-0.85008-14.406-4.2301-7.323-7.4242 5.147-2.321 5.1518-2.3607 1.0266-8.574-4.6372-6.9845-11.384-20.381-11.384-22.604 0-0.93957-0.36089-2.1091-0.80198-2.5989-1.7094-1.8983-6.4835-20.028-6.8662-26.074-0.39997-6.3184-11.012-3.7872-10.739 2.5615 0.15147 3.5266-2.5102 4.1797-2.9978 0.73554-0.32315-2.2826-5.752-2.3306-8.0793-0.0715-1.4732 1.43-7.0781 1.0511-7.0781-0.47853 0-0.73869-0.88538-1.6241-1.9675-1.9675-2.9767-0.94477-7.8597-12.631-5.7669-13.801 0.38672-0.21627 0.14129-0.25143-0.54542-0.0781-0.6867 0.17329-2.0668 0.31509-3.067 0.31509-1.0001 0-2.2573 0.96323-2.7937 2.1405-0.53641 1.1773-2.3203 2.7542-3.9643 3.5042-2.9288 1.3363-2.9418 1.3696-0.64524 1.6555 4.6236 0.57555 5.3399 1.136 3.3364 2.6105-1.0009 0.73661-2.9313 1.3393-4.2897 1.3393-1.3893 0-3.3871 0.97637-4.5665 2.2318l-2.0966 2.2318 3.0106 1.0495c1.6558 0.57722 3.7914 1.0495 4.7457 1.0495 7.2313 0-1.0652 6.2053-9.6571 7.2228l-4.6186 0.547 1.7962 1.9744c0.98791 1.086 2.3057 3.5654 2.9284 5.51 2.4876 7.7678-6.7892 9.4261-11.606 2.0746-1.905-2.9074-3.8151-1.9618-4.764 2.3586-0.3241 1.4756-1.195 3.1856-1.9353 3.8-0.7403 0.61439-1.346 1.6834-1.346 2.3755 0 1.4433-8.3198 22.791-11.76 30.173-1.2666 2.7184-2.3029 5.4539-2.3029 6.0789 0 0.62494-1.0442 3.2523-2.3204 5.8386-5.9698 12.098-10.341 22.701-17.789 43.149-1.1286 3.0986-2.8096 6.79-3.7355 8.2031-0.92589 1.4131-1.4419 2.5692-1.1467 2.5692 0.29522 0-0.71061 2.6367-2.2352 5.8594s-2.7723 6.8086-2.7727 7.9688-0.3899 2.1094-0.86554 2.1094c-0.47563 0-1.3664 1.582-1.9795 3.5156-0.61308 1.9336-1.6353 4.3594-2.2717 5.3906-0.63634 1.0312-1.3874 2.9297-1.6689 4.2188-0.45914 2.102-2.3257 6.9431-6.0189 15.61-0.69233 1.6248-1.2588 3.5419-1.2588 4.2603 0 0.71835-1.7807 4.8734-3.9572 9.2333-2.1765 4.36-4.6421 9.8257-5.4792 12.146s-2.8887 8.0156-4.5592 12.656c-3.0317 8.4223-4.2579 11.368-8.7815 21.094-1.319 2.8359-3.312 7.4766-4.4289 10.312-2.3921 6.074-5.367 12.932-6.6028 15.222-0.48328 0.89535-0.87868 2.1937-0.87868 2.8852 0 1.4388-3.5906 10.537-7.5837 19.217-1.4974 3.2549-2.973 7.0518-3.2791 8.4375-0.30615 1.3857-2.4169 6.4244-4.6907 11.197-2.2737 4.7726-4.134 9.1026-4.134 9.6221 0 0.51955-0.4191 1.6772-0.93134 2.5726-2.0296 3.5475-12.162 30.026-14.482 37.845-0.86151 2.9036-2.5976 6.677-3.8579 8.3853s-2.2915 3.4505-2.2915 3.8716c0 3.7013-4.0263 8.9469-6.386 8.3198-3.2865-0.87329-3.5889-3.3063-1.2581-10.123 1.0194-2.9813 2.576-7.9518 3.4592-11.046 1.4351-5.0274 2.4157-7.6834 5.1921-14.062 0.44883-1.0312 1.6831-4.1953 2.7428-7.0312 2.0808-5.5687 2.383-6.2934 5.8634-14.062 1.2704-2.8359 3.262-7.8984 4.4257-11.25s3.1665-8.4141 4.4508-11.25 3.9222-9.7969 5.862-15.469c1.9399-5.6719 5.5321-15.586 7.9828-22.031 2.4507-6.4453 5.003-13.406 5.6718-15.469 1.789-5.5169 16.685-43.219 19.446-49.219 3.6492-7.9294 10.047-23.787 10.047-24.903 0.000006-0.54803 1.0542-3.1817 2.3427-5.8526s3.2375-7.4959 4.3311-10.722c1.0936-3.2264 3.5672-9.2412 5.4968-13.366 1.9296-4.125 3.8304-8.5547 4.2241-9.8438 0.66908-2.191 6.9315-17.204 10.738-25.741 0.9293-2.0845 2.5425-6.1103 3.585-8.9462 1.0424-2.8359 2.9891-7.4766 4.3259-10.312 1.3368-2.8359 3.4674-8.1094 4.7346-11.719 5.5374-15.772 12.846-33.126 17.265-40.992 1.8517-3.2968 1.8531-3.3641 0.0773-3.8285-2.1725-0.56812-2.3459-3.4022-0.4612-7.5378 2.3518-5.1607 3.3299-10.252 3.3589-17.485 0.0357-8.927 1.3516-14.629 4.2542-18.434 1.2598-1.6517 2.2906-3.4322 2.2906-3.9566 0-0.52441 0.55194-1.2908 1.2265-1.7032 1.5446-0.94412 8.1485-12.991 8.1485-14.865 0-3.9108 21.879-6.5045 29.665-3.5166 0.99328 0.38116 1.3227 0.0308 1.1086-1.1793-0.24353-1.376 0.52866-1.868 3.846-2.4506 3.8113-0.66933 5.0334-1.4909 6.026-4.0512 0.23503-0.60623 0.98578-0.56868 2.1246 0.10627 1.8971 1.1243 10.489-2.8184 13.534-6.2109 1.6108-1.7944 2.5623-21.552 1.0379-21.552-1.6898 0-3.9252-7.3522-4.6563-15.314-0.7392-8.0503-0.3306-11.6 2.6614-23.123 0.4686-1.8047 1.7552-7.0552 2.859-11.668 1.1039-4.6126 2.3692-9.0423 2.812-9.8438 0.44271-0.80143 2.3432-6.0978 4.2233-11.77 1.8801-5.6719 3.7579-10.739 4.1728-11.259 0.41492-0.52084 2.1874-5.2251 3.9389-10.454 1.7514-5.2289 3.8498-10.522 4.663-11.764 0.95699-1.4606 1.1915-2.7695 0.6649-3.7105-0.46121-0.82413-0.45613-2.7006 0.0117-4.3319 0.50108-1.7472 0.45358-4.4698-0.12089-6.9292-5.2266-22.377 13.543-56.707 28.897-52.854 1.5353 0.38533 2.1627 0.25132 1.7733-0.37875-0.33143-0.53628-1.1589-0.97507-1.8387-0.97507-0.67988 0-1.7242-0.58804-2.3206-1.3068-2.356-2.8388 4.6954-13.693 8.8956-13.693 0.73388 0 1.3343-0.37614 1.3343-0.83587s1.064-1.1029 2.3644-1.4293c1.9861-0.49849 2.2111-0.87986 1.4062-2.3838-0.52698-0.98468-0.95815-2.8728-0.95815-4.1957 0-1.323-0.13579-2.4054-0.30174-2.4054-0.16596 0-2.3114 0.68478-4.7678 1.5217-3.2806 1.1178-5.0046 1.2673-6.4951 0.56336-1.116-0.5271-3.5057-1.4782-5.3104-2.1135-7.02-2.49-17.72-12.18-13.43-12.18 1.9018 0-2.2424-2.73-4.9014-3.2288-5.4778-1.0276-8.6482-6.7773-6.6385-12.04 2.0721-5.4258 1.9859-8.8364-0.24118-9.5432-1.931-0.61289-3.4389-4.5237-1.9416-5.0357 2.8302-0.96783 2.8351-3.9755 0.0104-6.3524-1.57-1.32-2.86-2.95-2.86-3.62 0-0.66831-1.0398-1.8964-2.3108-2.7292-3.6438-2.3875-4.5419-4.796-2.942-7.8898l1.3666-2.6427-5.5076-1.2219c-11.943-2.6495-9.9261-10.288 5.0252-19.033 6.0043-3.512 7.8842-6.9153 7.8842-14.273 0-5.7131 2.7803-13.852 5.3635-15.7 1.3296-0.95145-0.58927-1.3461-12.306-2.5312-32.282-3.2649-23.772-15.345 11.56-16.41 8.1586-0.24592 10.257-5.5568 9.459-23.943-0.50191-11.568 1.0946-17.305 6.251-22.461l3.2203-3.2203 19.515-0.40707c17.673-0.36864 20.2-0.22112 26.764 1.5626 3.9866 1.0833 8.2054 1.9686 9.375 1.9673 11.405-0.013148 38.161 10.078 43.825 16.529 4.3308 4.9325 2.1781 16.089-4.3675 22.635-2.8215 2.8215-2.2416 3.7283 1.0182 1.5923 6.6195-4.3373 6.714-0.48768 0.40868 16.639-3.5365 9.6057-3.6451 9.1916 4.133 15.763 16.066 13.573 17.939 16.275 13.359 19.276-2.6531 1.7384-9.9516 1.2534-16.637-1.1055-4.8087-1.6966-6.41-1.6836-5.746 0.04678 0.28945 0.75427-0.20041 3.5592-1.0886 6.2332-1.2116 3.6479-1.4676 6.446-1.0252 11.206 0.56807 6.1122-0.84805 16.852-2.9587 22.439-1.4599 3.8643 3.0758 12.229 6.2954 11.61 1.842-0.35406 2.6706 0.0465 3.5123 1.6975 6.4149 12.584 7.7278 15.728 7.7635 18.593 0.0227 1.8189 1.2488 5.6158 2.7248 8.4375s3.6523 6.9702 4.8363 9.2187c1.184 2.2486 3.7678 6.2377 5.7416 8.8647 1.9739 2.627 4.4943 7.5372 5.601 10.912 1.1066 3.3744 2.4783 6.7215 3.0481 7.438 1.0133 1.2741 1.8076 3.7173 4.6055 14.166 2.9116 10.873 4.382 19.68 5.4004 32.344 0.58051 7.2188 1.8966 17.766 2.9246 23.438 2.1364 11.787 2.2096 12.639 3.104 36.094 0.36373 9.5391 1.0137 19.242 1.4444 21.562 0.46487 2.5046 0.43107 4.3456-0.0832 4.5308-0.47643 0.17165-0.23655 1.2111 0.53305 2.3098 0.76962 1.0988 1.6684 4.0264 1.9973 6.5058 0.32891 2.4794 0.96428 4.7344 1.412 5.0111 0.44766 0.27667 0.81393 1.1513 0.81393 1.9436 0 0.79231 0.79384 2.5604 1.7641 3.929 0.97025 1.3686 2.4751 4.5904 3.3441 7.1595 0.86902 2.5691 1.8904 4.8894 2.2698 5.1562 0.37937 0.26688 1.694 2.1727 2.9213 4.2352 1.2274 2.0625 3.9942 6.4922 6.1486 9.8438 2.1543 3.3516 4.2466 7.1429 4.6495 8.4252 0.40288 1.2823 1.7235 3.829 2.9348 5.6593 2.8933 4.372 9.9494 22.234 10.082 25.523 0.0573 1.4168 0.38643 2.577 0.73139 2.5781 0.34496 0.00094 1.059 1.7951 1.5868 3.9865 0.52779 2.1914 2.0701 7.7812 3.4273 12.422 1.3572 4.6406 3.0907 11.391 3.8522 15 0.76152 3.6094 1.7698 7.4062 2.2406 8.4375 0.4708 1.0312 0.8085 2.9297 0.75045 4.2188-0.058 1.2891 0.34619 5.2969 0.89832 8.9062 0.55213 3.6094 1.4818 11.625 2.066 17.812 1.2712 13.464 2.7526 22.039 4.1065 23.77 1.0776 1.3777-4.252 6.6238-6.7796 6.6734-0.98442 0.0193-1.0356 0.32772-0.21799 1.3129 1.2244 1.4753 0.0114 2.4528-8.2132 6.6185l-5.0304 2.5479 0.61837 3.8671c0.34011 2.1269 0.9845 4.3099 1.432 4.8511 0.44749 0.5412 0.81075 2.0387 0.80725 3.3278-0.004 1.2891 0.31784 4.2422 0.71409 6.5625 2.5664 15.028 0.36491 39.596-4.5366 50.625-1.0312 2.3203-2.6029 5.9062-3.4929 7.9688-1.5056 3.4892-3.7628 16.77-3.7628 22.139 0 1.3918 1.1496 3.4555 2.8125 5.0486 1.5469 1.482 2.8125 3.1097 2.8125 3.6172 0 0.50746 0.57336 1.5887 1.2741 2.4027 1.5678 1.8212 3.6766 10.139 2.8923 11.408-0.31476 0.50928 0.86595 2.2806 2.6238 3.9363 13.097 12.336 15.915 17.145 18.24 31.124 0.25618 1.5409 1.0574 3.9457 1.7805 5.3441 0.7231 1.3983 1.3147 3.1393 1.3147 3.8688 0 0.72951 0.7803 2.3325 1.734 3.5622s1.8057 2.8686 1.8933 3.6421c0.0877 0.77344 0.29019 2.5988 0.45017 4.0563s1.3776 3.5669 2.7059 4.6875 2.8915 2.9867 3.4738 4.1468c0.58297 1.1614 1.926 2.1094 2.9886 2.1094 1.1414 0 2.1301 0.76606 2.4201 1.875 0.26968 1.0312 0.99579 1.875 1.6136 1.875 1.489 0 4.2801 5.9619 4.2942 9.1724 0.007 1.4005 1.4781 5.0776 3.271 8.1713 1.7929 3.0938 6.2963 11.742 10.008 19.219 3.7113 7.4766 7.9756 14.859 9.4764 16.406 1.5008 1.5469 3.098 3.7588 3.5493 4.9153 1.1864 3.0402 11.19 17.116 12.164 17.116 0.45283 0 1.2597 1.6205 1.793 3.6011 1.055 3.9178 3.2028 6.3241 6.1231 6.8597 1.0253 0.18805 2.0165 1.1326 2.2026 2.0989 0.27733 1.44-0.10121 1.6729-2.0986 1.2911-1.32-0.29-2.42-0.13-2.42 0.31 0 0.44412 1.0096 0.8075 2.2434 0.8075 2.9952 0 3.5818 1.946 1.4302 4.7453-0.96635 1.2573-1.7664 3.0304-1.7778 3.9403-0.0114 0.90992-1.2699 2.414-2.7965 3.3424-1.5266 0.92841-3.6846 2.8435-4.7955 4.2558s-3.6587 3.2235-5.6618 4.025c-3.6581 1.4637-4.8521 3.1286-2.2437 3.1286 0.76907 0 1.9292 0.88035 2.5781 1.9563s4.6844 3.6714 8.9677 5.7676c10.997 5.3819 13.229 7.6728 13.117 13.465-0.10886 5.6459 0.99362 12.369 2.145 13.08 2.9581 1.8282 0.83395 9.1227-4.066 13.963-11.386 11.246-14.064 12.754-17.283 9.7299l-2.1698-2.0384-2.3438 2.2018c-1.3 1.21-2.35 2.94-2.35 3.84 0 0.89959-0.60032 2.83-1.334 4.2897-0.73372 1.4598-2.5001 5.6072-3.9253 9.2166-2.25 5.698-3.8649 7.8396-12.26 16.258-5.3176 5.3325-9.6684 10.066-9.6684 10.519 0 0.93572-8.1887 4.884-13.125 6.3284-4.8855 1.4295-11.902 1.7549-18.75 0.86962zm3.953-9.8348c3.9871-4.5709 4.0248-6.1547 0.13013-5.4659-3.9433 0.69741-7.1063 3.5917-6.2796 5.7461 0.72014 1.8766 4.4149 1.7083 6.1494-0.28022zm-252.16 0.0412c-1.1602-0.22349-3.0586-0.22349-4.2188 0-1.1602 0.22341-0.21093 0.40622 2.1094 0.40622s3.2695-0.18281 2.1094-0.40622zm-9.1406-0.91921c-1.5469-0.19922-5.3707-0.97979-8.4974-1.7345-3.1267-0.75469-6.5017-1.3252-7.5-1.2676-3.2216 0.18572 11.18 3.4374 15.06 3.4003 2.8552-0.0272 3.0789-0.12235 0.9375-0.39825zm14.945-8.2928c1.0009-0.75704 2.7939-1.3764 3.9844-1.3764s2.1646-0.42188 2.1646-0.9375c0-0.51563 1.3711-0.99953 3.0469-1.0753 1.6758-0.0759 0.51563-0.41565-2.5781-0.75521-7.1645-0.78632-13.201 0.51325-11.561 2.489 0.8906 1.0731 0.84474 1.5388-0.21772 2.2111-1.0136 0.64135-0.76719 0.84788 0.99778 0.83625 1.2891-0.009 3.1627-0.63487 4.1636-1.3919zm-38.851-2.7385c0-0.23369-1.9671-1.295-4.3713-2.3585-4.1091-1.8177-7.8162-1.8368-7.8162-0.0404 0 0.95279 5.2446 2.232 6.35 1.5489 0.42391-0.262 1.3834-0.0888 2.1322 0.38492 1.43 0.90462 3.7052 1.1903 3.7052 0.46512zm18.016-4.483c-1.5823-0.76229-2.4252-0.74575-3.2344 0.0635-0.83422 0.83421-0.32544 1.0793 2.14 1.031 3.0375-0.0596 3.1041-0.12621 1.0944-1.0944zm58.859-0.23832c1.2891-0.24138 7.5117-1.1771 13.828-2.0794l11.484-1.6406v-2.9834c0-1.6409-0.83768-5.6577-1.8615-8.9263s-2.356-9.4423-2.9604-13.719l-1.0989-7.7764-2.6646 0.58523c-3.846 0.84472-3.5256-1.8058 0.38232-3.1636l3.0469-1.0586-3.5156 0.39529c-1.9336 0.21741-3.5156 0.0677-3.5156-0.33279 0-0.88881 4.2593-2.904 6.1379-2.904 0.74917 0 1.3621-0.47108 1.3621-1.0468 0-0.65433-0.79091-0.8017-2.1094-0.39307-4.5662 1.4152-6.3281 1.6195-6.3281 0.73354 0-0.50872 1.981-1.4796 4.4022-2.1575 2.4212-0.67789 3.8914-1.4028 3.2672-1.6109-0.6243-0.20811-3.3436 0.28429-6.0429 1.0942-6.8469 2.0544-19.575 3.6192-20.655 2.5394-1.5338-1.5338 0.28642-2.9088 3.8497-2.9081 2.8859 0.0006 10.802-1.2387 21.507-3.3671 1.1602-0.23065 2.1094-0.83321 2.1094-1.339 0-1.727-4.8057-1.1737-24.892 2.8664-5.1701 1.0399-7.9209 3.4355-7.9209 6.8982 0 3.5233-7.5432 11.769-16.383 17.909-15.241 10.586-18.706 13.51-16.765 14.143 0.95781 0.31213 3.7181 1.371 6.134 2.353 2.4159 0.98205 5.2776 1.7855 6.3593 1.7855s4.0481 1.0547 6.5919 2.3438 5.7994 2.3587 7.2345 2.377 3.664 0.66045 4.953 1.4271c2.2244 1.3229 6.84 1.3084 14.062-0.044zm244.27-7.4803c2.3305-1.7627 0.6686-1.7834-2.3989-0.0298-1.5023 0.85878-1.819 1.3517-0.88231 1.373 0.80379 0.0183 2.2804-0.58618 3.2812-1.3432zm-11.032-7.5653c4.2753-0.83052 10.073-2.5628 12.883-3.8496 2.848-1.3038 5.8888-2.0924 6.8689-1.7814 1.2404 0.39369 2.2422-0.17977 3.3994-1.946 0.90243-1.3773 3.5947-4.4506 5.9829-6.8295 4.0959-4.0801 10.689-11.583 15.046-17.122 1.0737-1.365 1.9522-3.1939 1.9522-4.0642 0-0.87032 0.78285-2.7022 1.7397-4.0709 0.95681-1.3686 2.0155-4.2752 2.3526-6.459l0.61295-3.9705-8.2629-4.1499c-4.5446-2.2824-8.819-4.8199-9.4987-5.6389-1.758-2.1182-2.8951-1.8541-6.7845 1.5759-2.6961 2.3776-3.1814 3.2592-2.2569 4.0999 2.8805 2.6196 0.60897 7.017-3.4671 6.7117-4.924-0.36875-6.4906-2.603-3.9269-5.6004 1.0096-1.1804-0.18236-0.53253-2.6487 1.4397-4.015 3.2106-8.4216 4.2135-6.7698 1.5408 1.1906-1.9264-0.81462-0.84612-4.3381 2.3371-1.9976 1.8047-4.0328 3.2812-4.5228 3.2812-1.21 0-3.5453 5.3548-4.0884 9.375-0.24382 1.8047-1.1036 5.1797-1.9106 7.5-0.80699 2.3203-1.8918 8.6484-2.4108 14.062-0.51894 5.4141-1.2196 11.236-1.557 12.937-0.57196 2.8839-0.46311 3.0606 1.6091 2.6123 1.2224-0.26449 5.7205-1.1604 9.9958-1.9909zm31.83-29.112c-2.7882-2.7882 2.5825-7.8893 6.4506-6.1268 2.4664 1.1238 3.2214 5.7427 0.93868 5.7427-0.70899 0-2.5049 0.24316-3.9909 0.54037-1.486 0.29719-3.0153 0.22688-3.3984-0.15626zm-8.2172-9.3152c-2.6796-3.2288 5.0195-8.4361 8.0268-5.4288 2.9665 2.9664 1.3834 6.3728-3.0398 6.5408-2.3241 0.0883-4.3693-0.36777-4.9869-1.112zm-256.39 0.53853 3.75-0.74778-4.8142-0.11733c-2.6478-0.0645-6.2338 0.53616-7.9688 1.3349l-3.1545 1.4522 4.2188-0.58713c2.3203-0.32291 5.9062-0.92362 7.9688-1.3349zm12.188-1.92 2.8125-0.71566-3.2812-0.0174c-1.8047-0.01-4.3359 0.32031-5.625 0.73314-3.2787 1.05 1.9672 1.05 6.0938 0zm14.931-0.83946c1.6164-0.6332 1.641-0.77114 0.23437-1.3109-1.8068-0.69335-4.3846 0.0787-4.3846 1.3132 0 0.98645 1.6286 0.98556 4.1502-0.002zm-13.056-2.9971c3.7781-0.59929 3.2638-0.66415-2.651-0.3343-4.0362 0.22508-8.044 0.86045-8.9062 1.4119-1.1711 0.74903-0.50046 0.8336 2.651 0.3343 2.3203-0.36762 6.3281-1.003 8.9062-1.4119zm26.719-5.8932c0-1.5955-1.4666-3.3612-5.1562-6.2078-2.8359-2.1879-5.1562-4.2783-5.1562-4.6453 0-1.4558 1.2815-1.8025 3.1701-0.8579 1.1662 0.58328 0.63156-0.26911-1.2951-2.0648-1.8047-1.682-4.6827-4.3587-6.3955-5.9482l-3.1143-2.89 3.6538 7.0312c2.0096 3.8672 4.7839 8.8187 6.1652 11.003 1.3813 2.1847 2.4596 4.2941 2.3963 4.6875-0.28 1.72 0.28 2.12 2.92 2.12 2.3366 0 2.8125-0.37725 2.8125-2.2297zm-33.549-0.34839c-0.37166-0.90234-2.3192-4.8047-4.328-8.6719-2.0087-3.8672-5.1715-10.039-7.0284-13.715-2.2246-4.4041-5.055-8.191-8.2981-11.102-5.337-4.7913-6.469-3.9739-2.5318 1.828 2.5918 3.8192 2.3535 5.3112-0.55773 3.4931-2.6765-1.6715-2.3182 0.34591 0.57531 3.2395 2.2989 2.2989 2.3942 2.8102 2.1094 11.319l-0.29829 8.9112 7.5 1.9979c4.125 1.0988 8.3438 2.5124 9.375 3.1413 2.7657 1.6865 4.2797 1.4951 3.4826-0.44025zm6.3612 0.75846c0-0.48519-0.42876-1.1472-0.95279-1.471-0.52403-0.32387-0.71008-0.98158-0.41342-1.4616 0.29665-0.47999 0.18612-0.87272-0.24562-0.87272-0.43173 0-2.4083-3.2695-4.3924-7.2656s-4.0008-8.0378-4.4816-8.9817c-10.3-20.24-11.47-23.13-9.35-23.13 0.42632 0 0.58938-1.2656 0.36235-2.8125-0.63428-4.3216 2.0346-3.5596 3.8665 1.1038 0.84611 2.154 1.814 3.6407 2.1508 3.3039 0.33683-0.33683 0.0941-1.237-0.53939-2.0003-1.2572-1.5149-0.60078-3.3654 1.1743-3.3104 0.6141 0.019 3.2259 4.2365 5.804 9.3722s5.0023 9.3389 5.387 9.3404c0.38474 0.002-1.1649-3.6886-3.4437-8.2003s-4.2811-9.2578-4.4495-10.547c-0.59679-4.5664 1.471-3.1974 4.6476 3.077 2.5647 5.0659 3.4757 6.1451 4.4821 5.3099 1.4482-1.2019 3.2202-0.4287 3.2202 1.405 0 2.5858 2.6218 6.0822 9.4038 12.541 9.2108 8.772 12.13 9.4358 5.9231 1.3469-4.968-6.4746-11.195-19.749-9.8814-21.063 1.4741-1.4741 3.2261 0.21065 4.7725 4.5893 0.69442 1.9662 1.7589 4.2077 2.3656 4.9812 0.60666 0.77344 1.9259 3.0232 2.9316 4.9995 2.4315 4.778 3.2387 5.1259 2.5879 1.1153-0.7012-4.321 1.0075-4.3328 3.0535-0.021 0.85639 1.8047 1.9014 3.2812 2.3223 3.2812 1.4026 0-0.89144-5.856-2.8244-7.2099-1.0474-0.73367-1.9045-1.9464-1.9045-2.695 0-1.1302-0.32284-1.1609-1.9036-0.18121-2.7263 1.6897-5.5722-5.0516-10.781-25.539-1.5425-6.0666-3.8109-11.096-5.5962-12.408-0.51563-0.37883-0.62729-0.69523-0.24816-0.70313 1.0802-0.0225-2.1435-4.8267-6.9769-10.397-7.3779-8.5034-7.8196-9.0636-10.553-13.388-2.4067-3.8076-6.4585-4.6475-4.3928-0.91061 1.3179 2.3842 18.255 20.931 19.115 20.931 0.50339 0 0.66541 0.99547 0.36003 2.2122-0.38289 1.5256 0.022 2.7346 1.3046 3.8953 2.0139 1.8226 2.5241 5.1425 0.79031 5.1425-1.5441 0-19.845-19.096-25.014-26.099l-4.3855-5.943-0.29139 5.4742c-0.35431 6.6563 0.49963 11.84 1.8165 11.026 0.52887-0.32686 2.7224 0.81444 4.8745 2.5362l3.9129 3.1305-2.8578-3.7342c-8.3871-10.959-7.9685-15.71 0.514-5.8337 2.3203 2.7016 9.1758 9.8862 15.234 15.966 6.0586 6.0795 11.016 11.458 11.016 11.953 0 1.3505-2.1319 1.0841-4.4789-0.55985-3.5403-2.4797-1.2808 1.5513 4.0151 7.1631 0.77073 0.81669 1.4013 1.9768 1.4013 2.5781 0 1.8479-2.3708 1.2154-4.6875-1.2505-1.211-1.2891-2.5264-2.3438-2.923-2.3438-0.39666 0-3.3-2.5312-6.452-5.625-3.1519-3.0938-5.9377-5.625-6.1905-5.625-0.48277 0 8.1074 10.04 13.993 16.355 7.3072 7.84 3.2182 8.3411-4.4912 0.55032-4.35-4.3959-5.8086-5.3686-6.8073-4.5397-1.83 1.5188-3.8049-0.50269-2.2828-2.3366 1.0082-1.2148-10.917-16.622-12.83-16.577-2.4434 0.0576-2.8388 1.6312-1.5151 6.0296 0.75588 2.5116 1.3743 5.5302 1.3743 6.7081s0.76606 2.6929 1.7024 3.3666c0.9363 0.67376 1.9778 1.9633 2.3143 2.8656 0.9268 2.4847-2.5389 2.1041-4.2686-0.46875-0.77996-1.1602-1.7199-1.8185-2.0888-1.4631-0.36886 0.35547 0.42877 1.7458 1.7725 3.0895 2.8478 2.8478 3.1004 4.2033 0.80255 4.307-0.9801 0.0443-1.1688 0.26438-0.46875 0.54687 0.64454 0.26007 1.1719 1.0705 1.1719 1.801 0 1.516-2.4085 1.8028-3.2812 0.39063-0.98135-1.5878-2.3196-1.0354-1.7034 0.70312 0.59327 1.6738 5.3387 6.5109 8.0477 8.2031 0.82545 0.51562 5.3678 8.6367 10.094 18.047 7.5583 15.049 10.28 19.345 10.28 16.227zm3.9648-38.669c0.57944-1.7383 2.5976-2.0266 2.5976-0.37109 0 0.8164-0.66797 1.4844-1.4844 1.4844-0.81641 0-1.3174-0.50097-1.1133-1.1133zm204.56 32.168c0.467-0.75561-7.872-0.30188-8.7558 0.47641-0.21484 0.18921 1.5532 0.34402 3.929 0.34402s4.5478-0.36919 4.8267-0.82043zm-245.11-1.7577c-0.0957-2.285-4.7851-4.169-6.0624-2.4356-1.1278 1.5305-1.0384 1.8036 0.76695 2.3422 2.9171 0.87026 5.3297 0.91284 5.2954 0.0935zm6.5261-2.3438c-0.0552-2.5533-0.1964-2.7431-0.8716-1.1719-1.113 2.59-1.113 4.2188 0 4.2188 0.51562 0 0.90785-1.3711 0.8716-3.0469zm242.19-1.2228c3.5408-0.4456 19.44-7.7815 19.44-8.9696 0-0.34866-1.7309-1.5361-3.8465-2.6388-4.3657-2.2755-19.596-14.26-23.757-18.694-5.337-5.6873-1.3046-5.0078 5.5792 0.94014 12.951 11.19 22.024 16.429 22.024 12.717 0-2.2196-2.7285-6.7617-2.7827-4.6323-0.0869 3.415-6.2736 0.11661-21.715-11.577-15.183-11.498-23.682-20.129-19.744-20.05 0.35628 0.008 3.3704 2.3275 6.698 5.1562 5.7277 4.8691 9.1543 6.8075 6.606 3.737-0.6419-0.77344-1.5181-1.4062-1.9472-1.4062-1.0772 0-5.5528-4.5682-5.5528-5.6676 0-1.6944 1.5525-0.87915 8.9309 4.69 6.8772 5.1908 10.18 6.8293 6.6494 3.2991-3.2927-3.2927 0.18895-3.2566 3.7447 0.0388 1.4007 1.2981 6.1685 4.7226 10.595 7.61 4.4267 2.8874 9.1032 5.9524 10.392 6.8112 1.2891 0.85875 4.7238 2.293 7.6328 3.1871 6.1416 1.8878 9.1135 4.4065 5.1993 4.4065-1.3186 0-3.4797-0.41143-4.8023-0.9143-3.5812-1.3616-3.1954 2.3326 0.69434 6.6481l3.0556 3.39 4.5508-3.948c5.1472-4.4654 6.0118-12.676 1.3348-12.676-1.049 0-3.0271-0.59935-4.3957-1.3319-1.3686-0.73253-7.9165-3.9928-14.551-7.245-6.6343-3.2522-12.33-6.6081-12.656-7.4575-0.32661-0.8494-6.0782-4.3704-12.781-7.8246-6.7031-3.4541-12.854-6.8817-13.668-7.6169-0.82-0.74-1.92-1.34-2.45-1.34-0.53198 0-2.5521-1.0755-4.4892-2.3901-1.9371-1.3145-3.695-2.2171-3.9064-2.0057-0.44286 0.44285 4.7507 4.5065 7.8698 6.1576 2.427 1.2848 2.7925 2.9257 0.65169 2.9257-1.415 0-11.16-6.1181-14.949-9.385-7.886-6.8002-9.6733-4.6314-2.5654 3.113 6.4433 7.0202 12.409 14.441 12.409 15.436 0 0.4721 0.8052 1.5871 1.7893 2.4777 0.98414 0.89062 2.3192 2.9599 2.9669 4.5984 1.6709 4.2273 3.3427 5.9291 9.0097 9.1714 5.3501 3.061 5.9105 4.0977 3.3434 6.1852-1.1938 0.97081-1.3215 1.467-0.46875 1.8221 1.9277 0.80272 1.3237 2.4651-0.70312 1.9351-2.456-0.64225-2.3965 0.43241 0.11053 1.9981 1.456 0.90926 1.7077 1.5178 0.94393 2.2816-0.76379 0.76379-1.7833 0.49322-3.8226-1.0145-3.4851-2.5767-4.2541-2.6217-2.1446-0.1257 0.89729 1.0617 3.6354 3.0272 6.0846 4.3678s4.4531 3.0032 4.4531 3.6946c0 1.9616-2.0642 1.499-6.8477-1.5346-3.1544-2.0005-4.4023-2.4103-4.4023-1.4458 0 0.74034 2.0039 2.4779 4.4531 3.8612 8.3564 4.7196 11.552 7.0092 11.008 7.8884-0.74518 1.2057-8.8783 0.009-11.506-1.6932-2.6174-1.6953-2.9921-1.3915-2.3577 1.9111 0.53206 2.7697 1.1459 2.817 14.587 1.1255zm19.407-2.83c2.0689-2.0163-0.4644-1.7374-5.1228 0.56385l-3.75 1.8526 3.75-0.53927c2.0625-0.2966 4.3678-1.1413 5.1228-1.8771zm6.9066 0.71183c1.5591-1.7228 0.64844-3.9247-1.6232-3.9247-0.52683 0-0.4503 0.4872 0.1747 1.1122 0.85793 0.85793 0.76042 1.5009-0.42655 2.8125-0.84631 0.93517-1.1169 1.7003-0.60126 1.7003 0.51563 0 1.63-0.76513 2.4763-1.7003zm-280.83-1.3665c1.3912 0.52119 1.4434 0.39319 0.37541-0.92071-1.6042-1.9736-3.924-1.0727-3.8873 1.5097 0.0253 1.7838 0.13321 1.8295 0.9623 0.40738 0.58876-1.0099 1.5308-1.378 2.5496-0.99635zm8.0611-1.7379c0.79926-3.9963 0.73762-8.3203-0.1186-8.3203-1.4847 0-4.6433 8.8104-3.591 10.016 1.7305 1.9831 3.0989 1.3574 3.7096-1.6961zm258.87-21.057c-3.8025-3.1858-6.0938-4.4283-6.0938-3.3044 0 0.76113 7.0166 5.4187 8.4375 5.6007 0.25781 0.033-0.79688-1.0003-2.3438-2.2963zm-204.48-2.0293c-0.53675-2.2773-2.2406-5.1997-2.2406-3.843 0 1.014 2.0659 6.4211 2.4533 6.4211 0.2172 0 0.12146-1.1602-0.21275-2.5781zm230.67-7.4178c-0.44602-2.7893-1.3642-4.2149-3.7811-5.871-3.2538-2.2295-4.1059-3.8205-2.0462-3.8205 0.64901 0 0.30939-0.83645-0.78328-1.9291-1.8649-1.8649-2.0596-1.8769-5.8479-0.36113-3.3205 1.3286-4.5964 1.3977-8.3573 0.45281-4.6025-1.1564-5.2051-1.3983-17.462-7.0094-4.0693-1.8629-7.6164-3.1693-7.8824-2.9033-0.26607 0.26607 4.004 2.5846 9.489 5.1524 6.406 2.9989 9.8206 5.0974 9.5473 5.8676-0.36937 1.0409 26.606 15.15 27.448 14.356 0.14601-0.13777 0.00039-1.9082-0.3236-3.9343zm-228.7-5.0277c-2.2641-4.3783-2.7978-2.6593-0.79018 2.5448 1.3168 3.4133 1.8108 4.0126 2.0312 2.4642 0.1602-1.1252-0.39826-3.3793-1.241-5.009zm-6.6245-5.0161c-0.85798-3.4156-1.8719-6.2103-2.2532-6.2103-0.72208 0 0.48804 6.0637 2.1108 10.577 1.6631 4.6254 1.7479 2.0249 0.14244-4.3667zm5.7949-19.633c-2.4177-6.6656-1.3974-9.8946 1.7945-5.6794 1.1138 1.4708 1.3363 1.5138 1.3612 0.2629 0.0164-0.82243-0.86215-2.299-1.9523-3.2812-4.814-4.3375-8.6594-15.974-6.0063-18.176 2.3362-1.9389 0.13071-4.9278-2.6884-3.6433-2.6238 1.1955-9.8828-5.5396-9.9247-9.2083-0.0129-1.1297-0.44049-2.3118-0.95021-2.6268-0.53143-0.32845-0.68859 0.0479-0.36844 0.88217 1.0234 2.667-2.4715 1.5778-4.1126-1.2817-1.0134-1.7658-2.5183-2.8757-4.2421-3.1287l-2.6715-0.3921 0.6312 4.7693c0.72244 5.4587-0.51697 5.0544-2.3832-0.7774-1.0212-3.1912-0.97501-3.818 0.35304-4.789 1.9104-1.3969 0.63363-5.7602-3.148-10.758-1.3655-1.8047-3.0005-5.3906-3.6332-7.9688-3.3586-13.686-4.8431-17.445-6.3094-15.979-0.77362 0.77362-2.0542 1.769-2.8457 2.212-1.2628 0.70667-1.2044 1.1914 0.47652 3.9554 1.2927 2.1256 1.6186 3.5079 1.0023 4.2506-0.6193 0.74622-0.1578 2.4223 1.4335 5.2059 1.2908 2.258 2.3519 5.1952 2.3581 6.5272 0.007 1.332 0.31052 2.7211 0.67623 3.0868 0.75046 0.75046 0.39332 8.0687-0.46123 9.4514-1.0565 1.7095-0.0397 9.2445 1.5748 11.67 15.238 22.893 25.442 36.058 22.082 28.488-0.41046-0.92458-0.85523-2.5789-0.98838-3.6763s-1.2832-5.5271-2.5556-9.8438c-4.0329-13.682-4.4033-15.867-2.794-16.484 1.5223-0.58416 3.0649 1.1716 3.0882 3.515 0.007 0.79292 1.2528 5.0117 2.7665 9.375s3.6198 11.27 4.6803 15.348c1.0605 4.0781 2.2 7.664 2.5323 7.9688 0.76356 0.70032 0.24029-1.8266-2.7802-13.426-2.4927-9.5724-2.473-11.177 0.13131-10.676 0.99273 0.19118 1.9138 2.0697 2.6685 5.4425 2.7194 12.153 4.8923 19.907 7.136 25.465 1.318 3.2648 2.959 7.4126 3.6465 9.2173l1.2501 3.2812 0.74207-6.103c0.64359-5.2931 0.43533-6.9486-1.5695-12.476zm201 9.32c-6.4453-3.2474-14.461-7.2839-17.812-8.9699-3.3516-1.686-6.7266-3.446-7.5-3.9111-0.77344-0.46514-4.1145-2.213-7.4245-3.8842-5.5292-2.7915-8.2954-5.3822-5.747-5.3822 1.6534 0 31.804 14.656 48.65 23.649 3.7867 2.0214 7.0519 3.5083 7.2558 3.3044 1.1978-1.1978-6.1991-5.9067-15.095-9.6095-18.134-7.5482-36.077-16.681-36.077-18.363 0-0.96527-2.0046-2.4364-5.3906-3.9561-2.9648-1.3307-8.3438-4.3223-11.953-6.6481-6.6905-4.3112-8.3458-4.3789-5.6275-0.23018 1.4204 2.1678 1.4087 2.3868-0.17531 3.2843-1.9529 1.1065-2.0483 1.007 7.0836 7.3946 5.6752 3.9698 5.6515 3.9557 11.241 6.6898 2.2466 1.0989 5.1997 2.6206 6.5625 3.3816 2.8654 1.6001 24.159 11.651 30.793 14.534 2.4735 1.0751 5.7628 2.5443 7.3097 3.2648 8.5888 4.0007 3.843 0.45915-6.0938-4.5475zm-235.97 1.8764c-1.4867-2.5553-11.531-12.856-11.531-11.825 0 0.91597 11.134 13.114 11.97 13.114 0.17109 0-0.0263-0.57985-0.43863-1.2886zm26.5-4.1c-1.0816-1.0816-1.6365 0.61236-0.89893 2.7442l0.75426 2.18 0.34459-2.1899c0.18952-1.2044 0.0996-2.4349-0.19992-2.7344zm187.89-1.5581c0-0.61543-8.5614-5.2364-9.7017-5.2364-1.2324 0 2.6152 2.8388 5.9324 4.377 2.5713 1.1923 3.7693 1.4655 3.7693 0.85942zm35.625-1.126c0-0.31738-1.793-2.2247-3.9844-4.2384-3.1102-2.8581-3.6964-3.8425-2.6719-4.487 1.0237-0.64403 0.41645-1.653-2.7604-4.5864-3.385-3.1256-3.8772-3.9966-2.9142-5.1569 0.96112-1.1581 0.64322-1.7632-1.8644-3.5488-2.2538-1.6048-2.8766-1.7709-2.4474-0.65244 1.223 3.187-5.3612 3.0435-11.104-0.2421-2.8475-1.6292-5.3957-2.7437-5.6626-2.4767-0.26698 0.26698 1.9257 1.8943 4.8726 3.6162 5.2473 3.0662 6.4837 5.2167 2.7553 4.7925-6.4416-0.73278-8.3487-1.2096-12.099-3.0252-2.299-1.1129-6.721-3.6659-9.8268-5.6732-3.1058-2.0074-7.4586-4.1181-9.6729-4.6904-2.2143-0.57235-4.7643-1.2549-5.6666-1.5168-3.1214-0.90588-1.627 1.3274 1.875 2.8019 1.9336 0.81416 4.5703 2.0964 5.8594 2.8495 1.2891 0.75307 5.9297 3.0928 10.312 5.1994 6.9522 3.3416 7.4904 3.7636 4.2188 3.3087l-3.75-0.52148 4.7845 2.2743c2.6315 1.2509 5.7955 2.5825 7.0312 2.9592 5.8413 1.7807 21.488 8.3026 25.684 10.705 4.6218 2.6468 7.0312 3.4379 7.0312 2.3086zm-207.19-13.47c0-1.0312-0.42188-1.875-0.9375-1.875-0.51563 0-0.9375 0.84375-0.9375 1.875s0.42187 1.875 0.9375 1.875c0.51562 0 0.9375-0.84375 0.9375-1.875zm-3.9051-8.3218c0.95218-0.60358 0.78686-0.91449-0.69183-1.3012-1.0686-0.27946-2.3439-1.5626-2.8339-2.8515-0.9424-2.4787-2.8816-4.237-2.8816-2.6127 0 1.8263 3.1631 7.5871 4.158 7.5728 0.54904-0.007 1.5612-0.37124 2.2494-0.80744zm192.27-3.9927c-0.99207-1.8537-0.89036-1.9565 1.3733-1.3884 3.9403 0.98895 3.2773-2.6891-0.83657-4.6412-1.8047-0.85639-3.2812-1.9309-3.2812-2.3877 0-0.45687-0.76781-0.83068-1.7062-0.83068-1.4234 0-5.0498-2.605-11.08-7.9587-0.58696-0.52115-3.2878-2.635-6.0019-4.6975s-5.6661-4.4401-6.5602-5.2836c-1.2454-1.175-3.13-1.4732-8.0606-1.2754-5.7122 0.22916-11.192-0.71765-20.966-3.6228-2.2751-0.67616-2.2888-0.65342-0.46875 0.77602 5.4416 4.2738 5.7396 4.6472 3.9871 4.9968-0.90088 0.17967-3.4321-0.86986-5.625-2.3323-5.0546-3.371-11.464-6.2352-12.889-5.76-1.1744 0.39147 6.5659 5.7439 10.432 7.2139 1.2792 0.48634 3.5676 1.8968 5.0855 3.1343 6.3659 5.1904 15.556 11.169 16.617 10.81 0.62836-0.21228-0.12314-1.0761-1.67-1.9196-4.1939-2.2869-11.351-8.8238-10.544-9.6305 0.38703-0.38703 2.496 0.56221 4.6865 2.1094 4.4774 3.1625 7.7167 4.9593 5.1547 2.8593-0.90234-0.73961-1.6406-1.8256-1.6406-2.4133 0-1.2762 2.4761-1.4338 3.235-0.20585 0.29324 0.47447 2.7439 2.1816 5.446 3.7937l4.9128 2.9311-3.2812-2.793c-4.4092-3.753-1.6508-5.3357 3.0564-1.7537 1.6705 1.2712 7.256 5.1778 12.412 8.6813 5.1562 3.5036 9.7124 6.94 10.125 7.6365 0.41234 0.6965 1.2561 1.2816 1.875 1.3001 0.61891 0.0186 2.3909 1.0711 3.9378 2.3391 3.4372 2.8174 3.6305 2.844 2.2758 0.31272zm-243.1-3.7012c0.0644-0.47266 0.16992-1.0852 0.23437-1.3611 0.0644-0.27595 0.96094-0.0502 1.9922 0.50173 2.3161 1.2395 2.316 1.2352-0.10151-4.2299-1.3669-3.0901-1.8132-5.5124-1.4469-7.8536 0.36283-2.3193 0.25653-2.9116-0.3376-1.8809-1.2414 2.1536-3.0594 14.664-2.3077 15.88 0.65144 1.0541 1.7606 0.45856 1.9671-1.0562zm212.96-3.2031c-1.3902-1.2891-2.7871-2.3438-3.1043-2.3438-0.31715 0-1.2094-0.63281-1.9829-1.4062-0.77344-0.77344-1.8824-1.4062-2.4643-1.4062-1.3725 0-0.34739 0.94568 4.942 4.5589 5.1437 3.5137 5.9548 3.6994 2.6095 0.59738zm7.85-1.42c1.0897 0 1.5955-0.4177 1.2273-1.0135-0.34449-0.5574-1.6437-0.75812-2.8871-0.44605-2.0433 0.51283-5.7101-0.67903-6.9097-2.2459-0.25781-0.33675-2.1562-1.6125-4.2188-2.835-4.7808-2.8337-4.0144-1.9758 2.9118 3.2592 3.0392 2.2971 6.0876 3.9751 6.7743 3.7289 0.6867-0.24619 2.0827-0.44762 3.1022-0.44762zm-18.413-0.9375c-0.31867-0.51563-1.0819-0.93985-1.696-0.94272-0.6141-0.003-4.0282-2.3295-7.587-5.1702-6.7661-5.401-8.0182-5.8484-6.105-2.1815 0.63149 1.2104 1.4436 2.8312 1.8046 3.602 0.36105 0.77071 3.1431 2.3195 6.1824 3.4418 6.1902 2.2858 8.2564 2.6349 7.401 1.2507zm41.304-2.4204c-1.7469-1.2774-4.2725-1.8039-4.2725-0.89079 0 0.73437 5.1232 3.1789 5.6235 2.6832 0.25699-0.25456-0.35098-1.0612-1.3511-1.7924zm-200.62-3.8134c2.0968-2.0968 2.3963-3.0309 1.9223-5.9952-0.6026-3.7685 0.99309-5.5012 3.1319-3.4008 0.61529 0.60425 1.0386 0.67674 0.94073 0.16112-0.39941-2.1038 0.12104-3.2812 1.4503-3.2812 0.78125 0 1.4062-0.83333 1.4062-1.875 0-2.2939-0.821-2.3927-2.3626-0.28445-1.0609 1.4509-1.4225 1.3311-4.1186-1.365-1.6256-1.6255-3.5277-2.736-4.227-2.4676-3.2227 1.2367-10.144-9.4218-13.46-20.727-3.2571-11.106-3.3179-11.719-1.1625-11.719 1.2267 0 1.8929 0.61946 1.8929 1.7602 0 0.96811 0.67429 2.3198 1.4984 3.0038 1.3107 1.0878 1.4611 0.95541 1.2008-1.0571-0.32158-2.4859 0.62819-4.6444 2.0436-4.6444 0.48519 0 0.88217 0.97186 0.88217 2.1597 0 5.1192 8.8581 18.465 12.256 18.465 0.99371 0 1.8068 0.60268 1.8068 1.3393s0.57652 1.9158 1.2811 2.6204c1.9966 1.9966 6.2189 10.36 6.2189 12.318 0 1.3744 0.81856 0.91765 3.7278-2.0802 4.8063-4.9526 4.5133-5.6422-6.1383-14.445-4.6773-3.8654-9.899-8.789-11.604-10.941l-3.0995-3.9134 1.6447-3.6474c1.8253-4.0477 4.6513-6.9719 7.5001-7.7605 1.0312-0.28549 4.1953-1.4507 7.0312-2.5893s6.6328-2.2872 8.4375-2.5525c3.114-0.45775 11.831-6.5169 10.824-7.5238-0.26042-0.26043-2.0641 0.55086-4.0082 1.8029-5.1776 3.3345-8.8549 4.7716-9.7974 3.829-0.47005-0.47005 2.6297-2.9301 7.2478-5.7522 7.9064-4.8315 9.7521-6.71 4.7089-4.7926-3.1732 1.2065-6.1627 1.2431-6.1627 0.0756 0-0.87469 8.7528-5.6743 10.348-5.6743 0.45037 0 2.373-1.0547 4.2726-2.3438 4.0007-2.7149 1.1338-3.5124-3.3704-0.9375-2.8277 1.6165-7.8057 1.8546-7.304 0.34942 0.19375-0.58126 2.6547-1.9035 5.4688-2.9383 5.5647-2.0463 6.116-2.349 5.4643-3.0008-0.23838-0.23839-1.6226 0.18348-3.0759 0.9375-3.2389 1.6803-5.2512 1.7572-5.2085 0.19905 0.0177-0.64453 3.0763-2.5636 6.7969-4.2647 6.773-3.0966 16.226-9.3206 15.405-10.142-0.24032-0.24031-2.9366 1.0281-5.9917 2.8186-3.0551 1.7906-6.6937 3.5414-8.0858 3.8908-3.7623 0.94427-3.1935-1.2619 0.75018-2.9097 4.0245-1.6815 4.2332-2.4268 0.46875-1.674-4.9822 0.99644-3.0044-0.9758 5.1605-5.1459 7.5176-3.8396 9.7224-5.7759 6.5765-5.7759-0.76343 0-3.6111 1.4179-6.3281 3.1509-4.98 3.1763-12.404 7.1616-13.34 7.1616-2.2243 0 0.41302-3.0953 4.4158-5.1824 5.9965-3.1268 13.171-7.975 12.618-8.5274-0.22225-0.22226-3.502 1.5059-7.2884 3.8404-6.6406 4.0942-9.8124 5.2469-9.158 3.3282 0.17187-0.50394 3.6702-3.0352 7.7741-5.625s6.9176-4.7088 6.2526-4.7088c-0.66496 0-3.5395 1.5469-6.3878 3.4375-3.0147 2.001-6.3286 3.4375-7.9301 3.4375-1.5132 0-2.3351 0.25723-1.8264 0.57162 1.2988 0.8027 0.20314 2.1462-4.1156 5.0464-2.0533 1.3789-3.2134 2.507-2.5781 2.507 2.3814 0 1.0301 2.7349-2.3605 4.7775-1.9336 1.1649-4.1484 2.6862-4.9219 3.3807-1.6843 1.5124-6.3464 4.5449-12.422 8.0798-3.6867 2.145-5.7572 4.3869-4.0516 4.3869 0.40061 0 8.3441-4.7902 15.813-9.5357 5.319-3.3795 6.0334-3.2775 5.9161 0.84526-0.0816 2.8682-0.64188 3.8376-3.1159 5.3906-1.659 1.0414-3.2604 2.603-3.5585 3.4701-1.2514 3.64-28.942 19.531-30.798 17.675-0.77287-0.77287-0.68089-1.2808 0.35001-1.9325 1.1666-0.73753 1.1074-0.88649-0.357-0.89847-2.6622-0.0217-0.25686-2.4814 3.7054-3.7891 1.7634-0.58199 3.2063-1.4369 3.2063-1.8998 0-0.47663-1.0505-0.4422-2.4224 0.0794-5.7954 2.2034-4.9291-1.0534 0.97483-3.665 4.3211-1.9114 7.4972-5.7399 4.7618-5.7399-0.79158 0-1.4392-0.42188-1.4392-0.9375 0-0.51563 0.35733-0.9375 0.79405-0.9375 1.2471 0 4.831-3.3851 4.831-4.5631 0-0.58405-0.84375-1.0619-1.875-1.0619-3.0691 0-2.1369-2.3201 1.8275-4.5481 2.0364-1.1445 5.3059-3.827 7.2656-5.9611 5.3632-5.8404 7.0818-7.5146 10.784-10.505 1.8607-1.5032 3.1751-3.2751 2.921-3.9374-0.27341-0.71248 0.81575-1.7476 2.667-2.5348 5.5716-2.369 20.01-14.701 17.212-14.701-0.71561 0-14.049 9.7694-14.395 10.547-0.43065 0.96897-3.9062 0.89053-3.9062-0.0881 0-1.8052 17.884-13.471 19.86-12.955 1.4405 0.37669 1.6934 0.2363 0.93692-0.52012-2.2847-2.2847-6.21-1.6393-11.427 1.8789-6.4151 4.3259-8.0443 5.3399-12.247 7.6224-1.8404 0.99959-5.5194 3.5353-8.1755 5.6348-4.8303 3.8182-6.7595 4.6404-6.7595 2.8809 0-1.6536 9.6822-10.826 14.801-14.022 2.7266-1.7023 4.7716-3.2811 4.5443-3.5083-0.45857-0.45856-13.433 7.1548-18.116 10.631-4.9553 3.6777-4.3444 0.90525 0.8998-4.0835 2.6961-2.5647 5.8905-5.7784 7.0987-7.1416s3.9504-2.9581 6.0938-3.5443c12.729-3.4815 17.029-6.3975 13.96-9.4666l-1.9698-1.9698-3.578 3.9904c-3.0904 3.4465-7.4754 6.6139-9.1565 6.6139-1.3326 0-0.27722-2.2612 1.8284-3.9175 1.2891-1.014 2.3438-2.265 2.3438-2.78 0-0.51503-0.69007-0.24636-1.5335 0.59707-4.0281 4.0281-3.417-0.59499 0.63897-4.8343 3.3782-3.5308 3.6226-3.9861 1.28-2.3836-1.5927 1.0895-3.4373 2.6334-4.0992 3.4309-0.66188 0.7975-1.9166 1.45-2.7882 1.45-1.9908 0-6.6231 4.7455-6.6231 6.785 0 0.83938-0.77477 1.772-1.7217 2.0726-0.94693 0.30056-5.4821 5.1713-10.078 10.824-8.1445 10.017-10.233 11.689-11.259 9.0145-0.76268-1.9875-5.6861 0.7837-7.449 4.1928-0.77821 1.5049-1.8011 2.7362-2.273 2.7362-1.9035 0-1.9151-2.0419-0.0267-4.6939 2.5784-3.621 0.70274-3.6868-1.9719-0.0692-1.1353 1.5355-2.5844 2.5216-3.3014 2.2465-1.5431-0.59215-1.9095 0.44414-2.6299 7.4385-0.68906 6.6899-0.44318 6.6813 6.9705-0.24313 3.3175-3.0986 6.4391-5.498 6.937-5.332 2.3009 0.76696 1.0887 2.5889-4.5492 6.8374-3.3553 2.5284-6.111 4.9338-6.1239 5.3453-0.0265 0.85111 8.0154-4.5008 8.8904-5.9165 0.31455-0.50895 1.4306-0.92537 2.4802-0.92537s4.7379-1.8984 8.1963-4.2188c3.4584-2.3203 6.7935-4.2188 7.4114-4.2188 1.7945 0 1.297 2.631-0.61203 3.237-2.3241 0.73764-11.995 7.9634-16.077 12.012-1.8047 1.79-5.707 5.0108-8.6719 7.1573-2.9648 2.1466-5.3906 4.5223-5.3906 5.2795 0 1.9668 1.8787 1.7001 4.345-0.61693 1.401-1.3161 2.6958-1.7682 3.8104-1.3304 1.4457 0.56786 1.0618 1.2248-2.6718 4.5717-2.3981 2.1497-4.846 4.8714-5.4398 6.0482-1.779 3.5254 3.5461 1.5817 7.1841-2.6223 1.6551-1.9126 4.2778-4.0028 5.8282-4.645 1.5504-0.64222 3.0542-1.8606 3.3418-2.7075 0.85146-2.5079 7.7628-10.035 8.5193-9.2788 0.93796 0.93795-2.2764 6.8999-5.4641 10.135-1.418 1.4389-2.5781 3.0749-2.5781 3.6355 0 0.56058-1.3711 3.0269-3.0469 5.4807-3.8151 5.5863-6.5932 10.519-5.9241 10.519 0.50474 0 4.7616-6.2935 6.6081-9.7697 1.2022-2.2632 3.3004-3.0258 3.3004-1.1995 0 2.2577-7.8217 13.716-9.8081 14.368-1.0117 0.33214-2.6243 1.6018-3.5837 2.8214-2.4739 3.1451-4.7729 2.9461-4.1664-0.36064 0.41617-2.2692 0.34504-2.3634-0.59384-0.78539-2.1327 3.5844-4.4875 5.474-5.5267 4.4348-0.69669-0.69669 0.15404-2.7341 2.8628-6.8559 4.1279-6.2813 4.4523-7.8293 0.95607-4.5623-1.1942 1.116-4.3862 3.5012-7.0932 5.3006-4.5534 3.0267-4.9219 3.5486-4.9219 6.9715 0 4.1976 0.12332 4.2766 3.3624 2.1543 1.6638-1.0901 2.6522-1.2523 3.3541-0.55044 1.1966 1.1966 0.24763 3.0336-1.5672 3.0336-2.35 0-6.1661 4.2331-4.9303 5.469 2.5561 2.5561 7.2831 1.3382 6.6717-1.719-1.8714-9.3567 4.0893-0.0721 7.1306 11.107 0.60983 2.2416 1.3473 3.8372 1.6387 3.5457 0.29147-0.29148 0.0456-1.7036-0.54637-3.1382-1.3315-3.2265-1.8212-12.273-0.68448-12.647 0.95219-0.31251 1.8309 1.0855 3.7348 5.942 1.5655 3.9932 6.3528 4.4081 5.9473 0.51542-0.29699-2.8506 2.8685-3.2731 3.4903-0.46579 0.26454 1.1944 1.3683 5.7576 2.4528 10.14 1.0845 4.3828 2.1979 8.918 2.4743 10.078 0.27637 1.1602 0.83312 2.1094 1.2372 2.1094s1.262 2.198 1.9065 4.8846c1.0249 4.2723 1.2715 4.615 1.9673 2.734 0.92112-2.49 3.2209-2.1636 2.9771 0.4225-0.31776 3.3716 2.9907 18.209 4.0602 18.209 0.1308 0 1.3555-1.1177 2.7216-2.4838zm-20.507-55.162c-2.6217-1.9171-1.8762-2.8514 5.2173-6.539 3.7383-1.9433 9.2543-5.1967 12.258-7.2296 5.5723-3.7717 10.157-4.8069 6.9108-1.5602-0.85631 0.85631-2.0093 1.7077-2.5622 1.892-0.55291 0.1843-1.1057 1.0193-1.2284 1.8555-0.63285 4.3119-17.537 13.818-20.595 11.581zm218.46 50.988c-8.6196-16.148-22.19-25.714-27.726-19.543-1.8748 2.09-5.0961 4.3918-7.1586 5.1151l-3.75 1.315 5.3906 0.0412c5.4052 0.0412 6.3365-0.51296 4.2942-2.5553-0.83689-0.83688-0.55951-1.2972 1.1719-1.9449 2.0185-0.75504 2.8362-0.22112 7.4246 4.8473 7.233 7.9899 9.6313 10.049 15.739 13.511 6.8388 3.8768 7.0816 3.8354 4.6146-0.78655zm-37.697-21.428 4.6875-1.6898-9.667 0.49575c-13.585 0.69666-33.458-3.119-33.458-6.4239 0-1.7083 3.4141-1.5941 13.125 0.43915 9.7789 2.0475 36.701 3.2557 35.679 1.6012-0.39178-0.63389-1.3405-0.91147-2.1083-0.61684-1.6003 0.61409-6.2403-1.7731-9.4298-4.8514-1.1966-1.1549-3.3209-2.3794-4.7207-2.7212-4.9255-1.2026-12.495-5.2688-12.036-6.4655 0.26625-0.6938-0.50356-1.3592-1.8761-1.6215l-2.3276-0.44495 2.1597 2.3045c1.1878 1.2675 4.173 3.6108 6.6338 5.2073 4.971 3.2252 5.2855 5.027 0.81453 4.6657-2.1015-0.16979-2.9449 0.16584-2.9449 1.1719 0 2.108-1.6769 1.741-8.9062-1.9489-15.916-8.1234-32.856-21.016-27.614-21.016 0.53891 0 4.1248 2.1222 7.9688 4.7161 3.8439 2.5938 6.9776 4.3868 6.9637 3.9844-0.0139-0.40243-1.6397-1.7267-3.6129-2.9429-7.5392-4.6466-13.526-12.196-7.9858-10.07 0.72128 0.27679 1.3114 0.0946 1.3114-0.40483 0-2.2646 6.8774 0.70857 9.8474 4.2571 0.5176 0.61845 1.9942 1.4191 3.2812 1.7792l2.3402 0.65472-2.3438-1.9846c-8.2487-6.9847-10.213-9.527-11.261-14.571-1.11-5.31-2.81-7.73-2.81-3.99 0 1.194 0.41648 3.6231 0.92553 5.398 0.68555 2.3904 0.62477 3.4131-0.23438 3.9443-1.5572 0.96278-3.1689-0.85653-4.2879-4.84l-0.92167-3.2812-0.0846 4.0174c-0.0879 4.1787-3.6134 4.5359-3.9754 0.40278-0.0774-0.8842-0.39386 0.2908-0.70313 2.6111-1.2342 9.2592-3.3823 5.185-3.2942-6.2477 0.079-10.25 0.0329-10.488-2.2305-11.519-3.1603-1.4399-3.383-0.98396-3.4515 7.0676-0.041 4.8126-0.45663 7.2855-1.3137 7.8152-0.85417 0.5279-0.93034 0.97487-0.23897 1.4022 1.5617 0.96521 7.6223 10.416 7.6263 11.892 0.007 2.5292 3.782 7.4666 7.9617 10.413 4.7773 3.3673 5.112 4.2145 2.1129 5.3476-2.0626 0.77926-2.0419 0.83579 0.93157 2.5479 3.5542 2.0465 3.7721 3.1532 1.0973 5.5738-1.9324 1.7488-1.985 1.7338-4.4531-1.2694-2.8574-3.4769-3.9039-3.7993-3.9039-1.203 0 1.9828 13.212 10.058 18.034 11.022 3.2308 0.64616 3.3926-0.39531 0.24715-1.5912-6.8736-2.6133-2.6573-3.217 6.4468-0.92311 4.0614 1.0233 9.5458 1.9105 12.188 1.9715 2.6417 0.061 6.0688 0.43297 7.6157 0.82658 4.4132 1.123 7.1394 0.92216 12.188-0.89766zm-61.011-16.401c-0.0675-4.6662-0.42157-5.489-4.0609-9.4372-2.2528-2.444-3.7676-4.897-3.4826-5.6395 0.51749-1.3486-1.003-2.91-1.9305-1.9825-1.1208 1.1208 7.488 22.136 9.0792 22.163 0.25781 0.005 0.43549-2.2923 0.39484-5.1038zm65.491 3.1942c-0.27578-1.0546-2.2402-2.7979-4.3654-3.8741l-3.864-1.9567 1.7859 1.9991c0.98225 1.0995 2.2519 1.9991 2.8214 1.9991 0.56949 0 1.5624 0.84375 2.2064 1.875 1.5019 2.4049 2.0513 2.3884 1.4156-0.0424zm-155.65-4.37c-1.62-0.31-2.11-1.05-2.11-3.15 0-2.7868-2.8574-4.0126-4.2188-1.8098-0.31867 0.51562 0.0783 0.9375 0.88217 0.9375 0.93402 0 1.4616 0.84598 1.4616 2.3438 0 2.0454 0.38783 2.3275 3.0469 2.2161 2.2034-0.0923 2.4629-0.24015 0.9375-0.53395zm149.49-3.9537c3.8617 1.4682 3.6909 0.2078-0.51382-3.792-6.4983-6.1817-19.832-14.435-19.832-12.276 0 0.4616 0.33366 0.97989 0.74146 1.1518 0.40779 0.17187 2.9772 3.017 5.7098 6.3225 5.5223 6.68 10.707 10.785 11.187 8.857 0.21727-0.87218 0.92589-0.94113 2.7082-0.26351zm-142.22-1.4c0-0.73127 0.27303-2.1024 0.60673-3.0469 0.41386-1.1714 0.29835-1.4193-0.36338-0.7798-1.4998 1.4494-2.3942 5.1562-1.244 5.1562 0.55038 0 1.0007-0.59831 1.0007-1.3296zm153.77-1.929c-0.65224-0.78591-1.6215-1.4289-2.1539-1.4289-0.53241 0-0.20209 0.84634 0.73404 1.8808 1.9388 2.1424 3.2314 1.731 1.4199-0.45184zm-165.03-2.6c0-1.07-1.3552-0.85681-2.625 0.41302-1.7924 1.7924-1.3028 2.7519 0.75 1.4699 1.0312-0.64402 1.875-1.4914 1.875-1.883zm134.41-3.7589c-0.38408-0.64453-1.559-2.3537-2.611-3.7981-1.4302-1.9638-1.6228-2.8054-0.76354-3.3364 0.72801-0.44994-1.1697-1.8065-5.1788-3.7018-9.4022-4.4452-14.082-9.3766-5.5889-5.8895 1.6561 0.67995 6.401 2.3906 10.544 3.8013 4.1432 1.4108 8.5036 3.0844 9.6897 3.7192 1.1861 0.63479 2.3489 0.96187 2.5839 0.72685 0.57409-0.57409-15.033-8.1621-16.788-8.1621-0.76067 0-1.8742-0.59179-2.4744-1.3151-1.6693-2.0114 0.55074-2.3391 6.0181-0.88842 6.7255 1.7845 7.1516 1.7046 6.0706-1.1388-0.50287-1.3226-0.9143-3.3968-0.9143-4.6094 0-1.2125-0.43797-2.3506-0.97327-2.529-0.81713-0.27238-3.8246-11.846-3.5731-13.75 0.2901-2.1967-0.24473-6.9155-0.72894-6.4313-1.5707 1.5707-2.0467 8.6979-0.71835 10.757 1.17 1.8139 1.178 2.2006 0.0538 2.6319-0.9631 0.36958-1.1914 1.6265-0.84825 4.6706l0.46947 4.165h-3.7371c-2.8366 0-4.7861-0.80097-8.0907-3.3242l-4.3536-3.3242v5.1992c0 2.8596 0.42188 5.1992 0.9375 5.1992 0.51563 0 0.9375 0.63281 0.9375 1.4062 0 0.77344-0.42187 1.4062-0.9375 1.4062-0.51562 0-0.90179 1.3711-0.85814 3.0469 0.0867 3.3282 7.4206 11.08 7.4206 7.8431 0-2.8945 5.17-0.0131 11.996 6.6856 2.367 2.323 3.5043 2.7654 2.4166 0.94005zm27.713-2.3293c-0.62126-0.99481-2.2761-2.2415-3.6775-2.7705-4.6361-1.7499-11.28-7.2032-10.883-8.9329 0.21011-0.91607-1.0045-3.0677-2.8162-4.9886-1.7521-1.8578-3.1857-3.7696-3.1857-4.2486 0-0.47891-0.79891-0.87075-1.7753-0.87075-2.8974 0-0.87127 7.318 2.8552 10.312 10.651 8.5594 21.731 15.099 19.483 11.499zm-8.891 0.8713c-3.0204-2.5599-8.1061-5.9359-8.4396-5.6024-0.47678 0.47677 7.1773 6.1732 8.4396 6.2811 0.5625 0.0481 0.5625-0.202 0-0.67875zm-194.89-16.84c-0.19984-0.19983-1.2592 0.1161-2.354 0.70206-1.0949 0.58597-2.8185 0.80265-3.8303 0.48153-1.19-0.37769-1.8441-0.14774-1.8524 0.65119-0.007 0.67928-0.28178 2.2401-0.61053 3.4684-0.55505 2.074-0.25479 1.9774 4.2064-1.3532 2.6423-1.9726 4.6407-3.7501 4.4408-3.95zm36.454-3.1165c4.6019-2.7152 4.1904-3.1895-0.64954-0.7487-4.6161 2.3279-5.1489 2.7163-3.7255 2.7163 0.57209 0 2.5408-0.88542 4.375-1.9676zm90.522-6.5187c0-3.378-0.31154-3.9074-2.8125-4.7792-1.5469-0.53925-2.8125-1.3611-2.8125-1.8262 0-0.46517-0.87217-0.84578-1.9382-0.84578-2.2008 0-1.7297 3.5756 0.65473 4.9685 0.7059 0.41234 1.2834 1.3101 1.2834 1.995 0 1.1834 3.4257 4.1327 4.9219 4.2373 0.38672 0.0271 0.70313-1.6603 0.70313-3.7496zm24.248-1.1548c0.10305-3.1533-0.3446-5.6234-1.2318-6.7969-1.2752-1.6867-1.3962-1.2656-1.4235 4.9535-0.0369 8.4279 2.3852 10.109 2.6553 1.8434zm14.512-3.7369c-0.37024-2.2816-1.3792-3.974-3.0036-5.0384-2.1262-1.3932-6.8963-5.5146-11.043-9.5413-3.7698-3.6608-0.71946 2.0532 3.2308 6.052 2.4786 2.509 5.9044 6.3743 7.613 8.5895 3.5848 4.6476 3.9657 4.6403 3.2027-0.0618zm-8.6991-1.8865c-1.7185-1.6592-2.7943-2.384-2.3906-1.6106 1.2024 2.3036 4.4871 5.6554 5.02 5.1225 0.2723-0.27231-0.91095-1.8527-2.6294-3.5119zm-20.309 0.49879c0.28893-1.418 0.60877-4.793 0.71077-7.5s0.55684-4.9219 1.0108-4.9219c0.45391 0 0.5603-0.42876 0.23643-0.95279s-1.0703-0.65526-1.6587-0.29159c-0.58842 0.36366-0.1674-0.86833 0.93559-2.7378 1.651-2.7982 1.7834-3.5832 0.74934-4.4414-1.5895-1.3192-2.0893-0.53546-3.7208 5.8342-3.022 11.798-3.5745 15.919-2.2472 16.76 2.239 1.419 3.4464 0.88903 3.9838-1.7486zm-14.333-8.9414c-0.57363-0.57363-1.043-2.2242-1.043-3.668s-0.42188-2.625-0.9375-2.625c-1.1317 0-1.1551-5.4804-0.0478-11.219 1.0458-5.4202-0.13672-12.867-2.2935-14.444-1.3098-0.95771-1.537-1.9523-1.045-4.5745 0.57063-3.0418 0.4532-3.3048-1.2738-2.8532-1.6296 0.42615-1.9066 0.045-1.9322-2.6587-0.0517-5.4724-1.8857-6.8542-5.696-4.2917-4.2943 2.8879-5.3353 13.894-1.5871 16.778 2.7846 2.1426 3.2371 2.1107 3.8604-0.27262 0.28794-1.1011 1.0617-1.7845 1.75-1.5457 1.3191 0.45762 1.3884 2.1704 0.28453 7.0351-0.57669 2.5416-0.41882 3.0469 0.95192 3.0469 1.7049 0 1.6935 0.87101-0.14485 11.084-0.48278 2.6819-0.3164 3.0728 1.197 2.8125 1.349-0.23205 1.6898 0.18646 1.4656 1.7997-0.20948 1.5076 0.0883 1.9561 1.0531 1.5859 1.0402-0.39917 1.3228 0.34001 1.2462 3.2603-0.13042 4.9741 3.1052 8.0107 4.4263 4.1542 0.5219-1.5234 0.4388-2.7301-0.23437-3.4032zm28.558 1.0226c-1.412-2.016-1.4763-2.0252-1.4763-0.21165 0 1.0428 0.52207 2.4182 1.1602 3.0563 1.7791 1.7791 2.0222-0.40885 0.31617-2.8446zm15.305-2.9178c0.0526-0.95453-0.33435-1.4316-0.88511-1.0912-2.2628 1.3985-3.709-1.6655-3.7167-7.8745-0.009-7.2896 1.7292-28.406 2.6724-32.463 0.35961-1.5469 0.41584-4.5 0.12494-6.5625-0.45775-3.2454-0.62894-2.7332-1.2724 3.8068-2.7312 27.762-7.76 42.3-6.9984 20.233 0.28329-8.2082 0.1225-9.467-1.2552-9.8263-1.6078-0.41939-0.57161-8.3878 1.5336-11.794 0.55567-0.89909 0.25413-1.0562-1.1634-0.60633-2.4944 0.79171-3.1466-0.40712-2.1368-3.9281 0.53873-1.8784 0.46363-3.2052-0.22015-3.889-0.75876-0.75876-0.72364-2.2125 0.13066-5.4066 0.91063-3.4048 0.91884-4.5231 0.0372-5.068-0.85075-0.52579-0.61223-2.1228 0.96188-6.4399 1.1512-3.1574 1.9031-6.4642 1.6708-7.3484-0.31563-1.2013-0.44988-1.0884-0.53114 0.44641-0.14851 2.805-2.0092 3.7429-3.4678 1.7481-1.2097-1.6544-1.0558-2.9966 0.78463-6.8389 2.1128-4.4111-5.1656-11.845-9.8408-10.051-0.77388 0.29697-2.5559 4.2069-3.9601 8.6888s-2.9679 9.4145-3.475 10.961c-1.9169 5.8476-3.6166 12.939-3.2009 13.355 0.23758 0.23758 1.5266-3.1566 2.8644-7.5428 2.5221-8.2687 4.453-11.14 6.2698-9.323 0.59009 0.59009 0.67342 1.5201 0.20223 2.2571-1.3301 2.0807-5.3199 13.363-6.411 18.129-0.35414 1.5469-1.1869 4.0781-1.8505 5.625-3.8322 8.9325-4.4375 10.736-3.9845 11.871 0.35867 0.89908 0.52111 0.82336 0.57418-0.26765 0.1-2.0556 3.6521-9.9804 4.7882-10.683 0.50094-0.3096 0.92044-1.2763 0.93221-2.1482 0.031-2.3005 5.863-13.595 7.2442-14.029 0.64453-0.20273 1.1719 0.28612 1.1719 1.0863 0 0.90813 0.52852 1.2521 1.4062 0.91533 2.2846-0.87669 1.683 1.7745-2.3438 10.33-4.2396 9.0071-4.4351 9.9564-2.05 9.9564 1.0726 0 2.1751-1.2109 2.9875-3.2812 0.7081-1.8047 1.8415-3.2812 2.5187-3.2812 1.655 0 1.5596 0.97265-0.64373 6.5625-2.2448 5.695-2.2389 5.625-0.46875 5.625 1.7693 0 1.7785 1.2482 0.0342 4.6213-3.2224 6.2315-4.1085 10.165-2.1758 9.66 1.4866-0.38876 1.687-0.0684 1.2525 2.003-0.28449 1.3562-0.72972 3.4946-0.98943 4.7521s-0.0611 2.5403 0.44126 2.8508c0.91002 0.56242 1.2607-0.42176 2.6407-7.412 0.39971-2.0246 1.3075-3.8747 2.0174-4.1113 1.2792-0.42639 0.92843 10.533-0.45228 14.131-0.46864 1.2213 7.9707 10.217 14.575 15.536l2.3438 1.8876 0.60968-2.0376c0.33532-1.1207 0.65173-2.8008 0.70312-3.7336zm-22.575-2.7886c0.60753-0.73202 0.67349-1.7295 0.16842-2.5467-0.50105-0.81071-0.44779-1.8042 0.13433-2.5056 1.1148-1.3432 0.1796-3.3803-1.322-2.8797-1.1351 0.37838-1.7898 9.1354-0.68297 9.1354 0.38698 0 1.153-0.54149 1.7023-1.2033zm35.793-5.3592c0-0.51563-0.86865-0.9375-1.9303-0.9375-1.0617 0-1.6696 0.42187-1.3509 0.9375 0.31867 0.51562 1.1873 0.9375 1.9303 0.9375 0.74301 0 1.3509-0.42188 1.3509-0.9375zm-105.15-7.5c2.1354-1.5469 4.3081-2.8125 4.8282-2.8125 0.52009 0 0.94562-0.42188 0.94562-0.9375 0-1.8872-6.1998 1.5521-11.172 6.1975-1.7358 1.6218 2.3176-0.21606 5.3981-2.4475zm-63.601-5.625c2.2284-1.7431 2.2471-1.8343 0.37968-1.8542-1.0802-0.0114-2.7277 0.8229-3.6609 1.8542-2.2853 2.5252 0.0529 2.5252 3.2812 0zm20.542-11.101c6.0642-7.3115 7.9689-11.638 2.3359-5.3056-3.4482 3.8761-11.936 16.09-9.4461 13.594 0.77126-0.77344 3.9708-4.5031 7.1102-8.2881zm-12.339 5.2461c0.64454-0.51565 1.1719-1.4736 1.1719-2.1287 0-0.65514 0.73828-1.5053 1.6406-1.8892 1.4151-0.60212 1.3184-0.7964-0.70312-1.4131-3.6768-1.1217-4.273-1.0291-6.9542 1.08-3.1094 2.4459-2.5326 3.4363 0.74906 1.2861 3.9287-2.5742 4.8465-1.1162 1.4411 2.2892-3.1085 3.1085-1.023 3.7179 2.6546 0.7757zm106.92-3.2861c0.84609-2.5079 0.7878-3.0469-0.32957-3.0469-0.93816 0-1.3575 1.0618-1.3575 3.4375 0 3.9269 0.24999 3.869 1.687-0.39063zm53.268-5.625c0.33873-1.418 1.0312-3.1055 1.5389-3.75 0.50766-0.64453 0.67914-1.1719 0.38106-1.1719-0.29806 0 0.0102-1.582 0.68519-3.5156 1.7266-4.9464 5.3986-32.109 4.3408-32.109-0.62916 0-3.9534 8.6702-6.6497 17.344-1.122 3.6094-2.6065 7.1647-3.2988 7.9008-2.1177 2.2516-2.6815-1.2174-1.0187-6.2682 1.248-3.7908 1.2676-4.5377 0.13559-5.1712-0.90581-0.50691-1.144-1.6356-0.75537-3.5789 0.33031-1.6516 0.0459-3.8134-0.68016-5.1701-0.95531-1.785-1.016-3.2004-0.25866-6.0377 0.76662-2.8721 0.72465-3.706-0.18649-3.706-2.1387 0-2.2816-2.7488-0.44916-8.6366 2.0854-6.7002 2.0241-6.9828-1.0184-4.6986-1.2389 0.9301-3.3538 2.1658-4.6998 2.7459l-2.4473 1.0548 0.42765 11.564c0.33054 8.9381 0.85184 12.468 2.2956 15.547 1.3159 2.8055 1.8756 5.9918 1.8938 10.781 0.0206 5.4386 0.22032 6.3768 0.99804 4.6894 2.273-4.9316 5.5244-1.8627 5.839 5.5111 0.38928 9.1238 0.40892 9.2545 1.3913 9.2545 0.5058 0 1.1968-1.1602 1.5355-2.5781zm-152.02-1.8654c1.3099-1.4127 2.3817-2.9854 2.3817-3.4949 0-0.50949 5.3789-6.1722 11.953-12.584 6.5742-6.4115 10.555-10.812 8.8466-9.7786-1.7086 1.0333-5.3035 3.9494-7.9887 6.4804-2.6852 2.5309-6.5607 6.0879-8.6122 7.9045-3.4959 3.0956-10.761 12.185-10.761 13.463 0 1.3368 1.961 0.40294 4.1808-1.991zm73.632 1.7077c0-0.47346 0.24427-1.4974 0.5428-2.2754 0.40764-1.0623 0.0575-1.2876-1.4062-0.90484-2.1871 0.57196-2.1608 0.52322-1.38 2.5581 0.61089 1.592 2.2434 2.0447 2.2434 0.62211zm-78.281-5.355c1.0312-1.435 2.54-3.2924 3.3529-4.1276 0.81283-0.83522 1.7252-2.1192 2.0274-2.8532 1.2366-3.0031 13.973-17.888 23.062-26.952 8.2324-8.2099 9.6451-12.15 1.7035-4.7516-1.0481 0.97643-2.2682 1.7753-2.7113 1.7753-2.9266 0-23.216 15.282-23.216 17.486 0 0.65882-0.85556 1.6557-1.9013 2.2154-1.0457 0.55964-1.6758 1.3824-1.4002 1.8282 0.27559 0.4459-0.97544 2.745-2.78 5.1092-3.285 4.3035-3.3051 4.6586-0.24662 4.3475 2.1764-0.22139 2.0777 1.1398-0.23437 3.2322-1.0312 0.93327-1.875 2.2126-1.875 2.843 0 0.63039-0.63281 1.6713-1.4062 2.3132-2.3502 1.9505-1.5719 2.948 1.1719 1.5019 1.418-0.74729 3.4219-2.5328 4.4531-3.9677zm18.281-0.82156c0-0.77681 2.5681-3.9409 5.7068-7.0312 3.1387-3.0904 5.3536-5.6166 4.9219-5.6138-1.0959 0.007-13.441 12.117-13.441 13.185 0 0.47962 0.63281 0.87203 1.4062 0.87203 0.77344 0 1.4062-0.63557 1.4062-1.4124zm85.296-11.796c1.0162-3.8214 1.8233-7.3698 1.7935-7.8854-0.076-1.3155-4.5497 12.829-4.5714 14.453-0.0351 2.619 0.96118 0.26369 2.7779-6.5677zm13.112 2.0136c0.021-0.95233-0.37641-0.81399-1.3466 0.46875-0.75703 1.0009-1.3898 2.4278-1.4062 3.1709-0.021 0.95233 0.37641 0.81399 1.3466-0.46875 0.75703-1.0009 1.3898-2.4278 1.4062-3.1709zm-33.251 2.7573c0.31867-0.51563-0.28924-0.9375-1.3509-0.9375s-1.9303 0.42187-1.9303 0.9375c0 0.51562 0.60791 0.9375 1.3509 0.9375 0.74301 0 1.6117-0.42188 1.9303-0.9375zm-6.1781-6.3368c7.7554-7.3342 7.6948-8.4763-1.3543-25.53-2.6165-4.931-9.655-11.492-15.388-14.344-5.4902-2.7314-7.5464-2.2895-5.6692 1.2182 0.70687 1.3208 1.099 6.5915 1.0711 14.398-0.0386 10.798 0.61635 18.286 2.2456 25.673 1.0444 4.7356 6.1965 1.248 11.426-7.7342 3.1342-5.3837 6.5691-7.0961 5.4728-2.7283-0.36081 1.4376-1.3801 3.6942-2.2651 5.0147-6.918 10.322-4.4998 12.508 4.4619 4.0329zm-85.894 2.5868c-0.26968-1.0312-0.863-1.875-1.3185-1.875-0.96863 0-1.1127 2.2155-0.20316 3.125 1.2291 1.2291 2.0036 0.59284 1.5216-1.25zm145.7-6.7859c-0.22424-1.1662-0.41624-0.43281-0.42664 1.6297s0.17307 3.0166 0.40772 2.1203c0.23464-0.89634 0.24316-2.5838 0.0189-3.75zm32.469-1.4638c0.36821-1.9329 0.24287-2.8794-0.33409-2.5228-0.50786 0.31387-0.92338 1.8817-0.92338 3.4841 0 3.5413 0.46788 3.1836 1.2575-0.96131zm-125.93-0.67918c1.8116-2.1828 0.51895-2.5942-1.4199-0.45184-0.93613 1.0344-1.2664 1.8808-0.73404 1.8808 0.53241 0 1.5017-0.643 2.1539-1.4289zm-43.177-3.493c3.5404-3.594 5.2095-6.3281 3.8632-6.3281-0.50815 0-1.2613 0.5506-1.6736 1.2236-0.41234 0.67295-2.3317 2.4105-4.2653 3.8613-1.9336 1.4507-3.5156 3.0095-3.5156 3.4639 0 1.7691 2.7288 0.68531 5.5914-2.2206zm25.141 0c2.0472-1.6758 4.4567-3.4792 5.3543-4.0077 0.89765-0.52846 1.4774-1.717 1.2883-2.6413-0.26928-1.3163-1.5343-0.44798-5.8383 4.0077-6.1228 6.3385-6.389 7.2126-0.80434 2.6413zm-30.051-2.5781c1.311-1.0312 1.9516-1.875 1.4236-1.875-1.1689 0-5.7114 3.6748-4.5969 3.7188 0.43429 0.0172 1.8623-0.81256 3.1733-1.8438zm112.74-3.0469c0.0259-2.9558-1.3867-1.7132-1.6007 1.4081-0.15386 2.2442 0.0273 2.6752 0.68877 1.6388 0.49365-0.77344 0.904-2.1445 0.9119-3.0469zm-8.6122-8.9062c0.67-1.13 1.82-2.08 2.58-2.08 0.7553 0 1.3733-0.42188 1.3733-0.9375 0-1.3587-0.57689-1.1916-4.4718 1.2955-6.6052 4.2177-7.6988 5.5522-6.214 7.5827 0.72094 0.98595 1.3405 2.8722 1.3769 4.1916 0.0499 1.811 0.56985 1.1353 2.1217-2.7573 1.1306-2.8359 2.5923-6.1055 3.2482-7.2656zm-94.66 5.42c0.52197 0 1.0947 0.43695 1.2727 0.97101 0.17801 0.53404 1.7952-0.53581 3.5938-2.3775 7.7398-7.9254 18.149-13.073 20.089-9.9335 0.28984 0.46898 2.5129 0.0986 4.9772-0.82929 12.634-4.7571 14.53-3.5767 6.3284 3.939-5.5224 5.0603-8.1884 10.105-5.3402 10.105 1.2988 0 6.5522-6.007 6.8915-7.8802 0.178-0.98253 1.0304-1.8898 1.8942-2.0161 2.6835-0.39248 7.0716-6.0629 6.6001-8.529-0.459-2.4011-2.0709-2.7705-5.0744-1.1631-2.4741 1.3241-12.374 1.2075-14.959-0.17614-2.106-1.1271-7.6452 2.1549-17.799 10.546-4.2591 3.5197-6.4324 4.4454-6.4324 2.7398 0-0.46978 1.3186-1.9637 2.9302-3.3198s2.6858-2.71 2.3872-3.0086c-0.61532-0.61532-7.1924 6.0727-7.1924 7.3137 0 0.4435-1.1602 0.8553-2.5781 0.91511-1.5862 0.0669-1.9469 0.27371-0.9375 0.5375 2.2361 0.58434 2.0729 1.2545-0.9375 3.8491l-2.5781 2.2221 2.9572-1.9525c1.6265-1.0739 3.3843-1.9525 3.9062-1.9525zm106.14-5.8594c1.1774-3.7383 2.556-7.3344 3.0636-7.9914 1.1051-1.4303 0.54975-2.2464-0.90676-1.3326-1.0451 0.65572-5 12.373-5 14.813 0 2.6115 0.74428 1.1744 2.8431-5.4894zm52.47-4.79c0-2.3765-0.40378-1.8584-1.7229 2.2104-0.96667 2.9816-0.93658 3.1151 0.32957 1.4614 0.76635-1.0009 1.3934-2.6532 1.3934-3.6719zm-141.95-6.3849c2.2748-1.6337 3.9762-3.1302 3.7807-3.3257-0.51825-0.51825-9.0165 4.7467-9.0165 5.5861 0 1.2215 0.97122 0.80224 5.2358-2.2604zm63.67 1.0953c0.35045-0.56703-0.94621-0.9375-3.2812-0.9375s-3.6317 0.37047-3.2812 0.9375c0.31867 0.51562 1.7952 0.9375 3.2812 0.9375s2.9626-0.42188 3.2812-0.9375zm-81.245-2.718c0.3759-2.6597-1.5494-6.657-3.2064-6.657-1.3125 0-2.7652 6.8742-1.7871 8.4567 1.1533 1.8661 4.6537 0.60448 4.9936-1.7998zm8.2578-0.62628c3.0148-2.4704 4.6324-3.1932 6.1903-2.766 1.849 0.507 1.7622 0.27886-0.70349-1.8502-2.1117-1.8233-3.4841-2.3021-5.5078-1.9215-1.4824 0.27883-3.4468 0.50696-4.3654 0.50696-1.2284 0-1.5356 0.51424-1.1615 1.9446 0.39338 1.5043 1.0103 1.8187 2.7247 1.3884 2.8887-0.72502 2.8278 0.73732-0.12755 3.062-2.2789 1.7926-2.9711 2.98-1.7372 2.98 0.33361 0 2.4432-1.5049 4.6879-3.3443zm35.083-2.8114c4.821-2.4367 10.666-9.2264 11.88-13.801 2.4314-9.1612 2.5389-16.801 0.27657-19.653-2.1794-2.7473-6.0107-3.6478-5.068-1.1911 0.29275 0.76287-0.31955 3.1886-1.3606 5.3906-1.0411 2.202-2.8759 6.5291-4.0774 9.6158-2.3718 6.0934-5.4656 8.2725-5.4656 3.8496 0-3.9254 7.5348-21.18 9.2489-21.18 1.1147 0 0.87038-0.61932-0.97061-2.4603-3.2295-3.2295-6.113-1.372-9.6408 6.2103-3.4999 7.5225-7.3388 12.656-9.4641 12.656-4.1448 0 0.64551-9.4418 9.454-18.634 4.6514-4.8541 4.6598-4.7483-0.60613-7.6066-2.2852-1.2404-2.5156-1.179-3.4745 0.92571-1.6905 3.7102-14.303 16.409-16.297 16.409-3.0552 0-1.6346-2.2452 7.1529-11.305 7.8183-8.0604 8.2554-8.7153 6.6177-9.9128-2.7606-2.0186-4.4426-1.553-8.9292 2.4716-4.2839 3.8428-9.5373 7.5474-15.107 10.653-2.9515 1.6458-3.0212 1.7959-1.1611 2.4997 2.6816 1.0145 3.3096 3.0761 2.6682 8.7595-0.43069 3.8164-0.32228 4.4549 0.52799 3.1098 1.3914-2.2012 4.0467-0.30994 3.2203 2.2937-0.37851 1.1926-0.0892 1.7426 0.91633 1.7426 0.82038 0 1.4694 0.78943 1.4694 1.7872 0 1.3257 0.48423 1.6606 1.875 1.2969 1.6508-0.43168 1.875-0.0288 1.875 3.369 0 4.31-2.3574 5.5302-3.3148 1.7158-0.45241-1.8025-5.1227-3.7251-5.1227-2.1088 0 8.2524 23.747 17.712 32.878 13.097zm-16.416-5.9414c-0.32158-0.52032-1.2094-0.70633-1.9728-0.41335-3.0724 1.179-6.187-6.7615-3.3418-8.52 0.932-0.576 3.3882 2.7742 4.1062 5.6007 0.38905 1.5316 0.48437 1.564 0.5751 0.1953 0.15198-2.2927 2.9212-2.0705 2.9212 0.23438 0 1.0312 0.0316 2.1809 0.0703 2.5547 0.11428 1.1047-1.7229 1.376-2.3582 0.34824zm4.1629-1.4186c0-0.8164 0.66797-1.4844 1.4844-1.4844 1.6556 0 1.3672 2.0182-0.37109 2.5976-0.61231 0.20411-1.1133-0.29687-1.1133-1.1133zm65.062 7.4272c2.1145-0.70608 6.5221-1.7604 9.7947-2.3429s7.0695-1.4912 8.4375-2.0194c1.3681-0.52815 4.3858-1.301 6.7061-1.7174 6.5563-1.1766 30.871-8.3882 34.613-10.266 1.8456-0.92614 5.6759-2.4256 8.5118-3.3322 11.085-3.5434 17.133-6.8911 16.577-9.1742-0.2804-1.1499-0.94643-3.8104-1.4801-5.9121-0.53363-2.1018-2.0156-10.961-3.2933-19.688-4.6968-32.08-9.9235-58.072-12.734-63.329-0.44855-0.83887-1.1168-3.1308-1.4849-5.0932-0.69232-3.6904-5.4416-14.921-7.2502-17.145-0.56513-0.69482-1.155-2.0984-1.3107-3.119-0.15575-1.0206-0.88651-2.459-1.6239-3.1964-0.73739-0.73739-2.8884-4.3964-4.7799-8.131-1.8916-3.7347-4.0181-7.4452-4.7255-8.2456-0.70746-0.80043-1.4249-2.3637-1.5943-3.4739-0.16942-1.1102-0.95377-2.7756-1.743-3.7009-0.78923-0.92531-1.9851-3.159-2.6574-4.9636-2.23-5.9855-6.057-13.533-7.6898-15.166-2.4624-2.4624-5.2681-14.262-3.6317-15.273 0.66394-0.41033 0.52208-1.0953-0.42248-2.0398-0.78212-0.78212-1.1823-1.8099-0.88935-2.284 0.29297-0.47406 0.0367-0.86192-0.56948-0.86192-0.72415 0-0.86353 0.72347-0.40638 2.1094 1.1093 3.3629 1.3814 54.194 0.30882 57.677-0.51964 1.687-1.0958 4.4292-1.2804 6.0938-0.54029 4.8732-1.8941 9.3248-4.0523 13.325-1.1087 2.0549-2.0157 4.1005-2.0157 4.5458 0 0.44534-0.60421 2.1391-1.3427 3.7639-1.5427 3.3943-6.5476 17.607-8.6334 24.517-0.77824 2.5781-2.4379 6.6481-3.6882 9.0444s-2.2732 5.0107-2.2732 5.8098c0 0.79906-1.0547 3.4364-2.3438 5.8608s-2.3438 4.9745-2.3438 5.6668c0 0.69235-2.1751 5.533-4.8335 10.757-4.2681 8.3871-4.6519 9.5998-3.2812 10.367 2.8942 1.6196-1.1702 7.338-5.2155 7.338-1.7675 0-3.7347 3.534-4.9578 8.9062-1.2959 5.6922-4.2466 7.8385-7.6819 5.5876-2.7983-1.8335-3.0926-1.748-3.0926 0.89895 0 1.2473-0.63907 3.4621-1.4201 4.9219-0.78108 1.4598-2.2904 5.0865-3.3541 8.0594s-2.9389 6.5995-4.1671 8.0592l-2.2331 2.6539 6.2904 3.3956 6.2903 3.3956 12.562-0.49773c6.9089-0.27375 14.292-1.0754 16.406-1.7815zm-88.961-8.9235c0.32273-0.52219-0.0743-2.2745-0.88217-3.894-0.80793-1.6195-1.469-3.5478-1.469-4.2849 0-4.79-3.4709 1.4277-3.6566 6.5503-0.0973 2.6851 4.5724 3.951 6.0077 1.6287zm-12.66-10.67c0-0.79555-4.7672-1.2075-5.234-0.45231-0.27594 0.44647 0.78881 0.81177 2.3661 0.81177s2.8678-0.16176 2.8678-0.35946zm5.9884-5.9993c1.3134-2.5398 1.283-2.608-1.1478-2.5781-1.8665 0.0229-2.4273-0.3835-2.2214-1.61 0.43671-2.6009-1.8608-1.9132-4.6981 1.4062-3.733 4.3675-3.6761 4.4259 5.1016 5.2406 0.91538 0.0849 2.2017-0.98151 2.9656-2.4587zm-11.501-3.231 4.009-3.8136-3.7014 0.64056c-3.0947 0.53556-8.0586 2.0587-16.358 5.0193-1.9837 0.70766 1.7792 1.6172 7.4981 1.8124 4.1256 0.1408 4.9114-0.1954 8.552-3.6586zm-6.8535-5.9622c-3.8867-2.2427-4.582-2.5001-5.1688-1.9133-1.2574 1.2574 2.5961 4.0686 4.958 3.6171l2.3762-0.45424zm91.579-4.1246c1.4758-3.0878 2.5026-5.7245 2.2818-5.8594-0.22085-0.13491-3.7495-1.9091-7.8415-3.9426s-8.7883-4.8812-10.436-6.3281c-1.648-1.4469-3.4047-2.6308-3.9038-2.6308s-2.6546-1.2656-4.79-2.8125-4.1657-2.8125-4.5117-2.8125c-0.34605 0-2.6549-1.2999-5.1307-2.8886-5.2173-3.3479-5.7077-3.1892-8.76 2.8342l-2.2805 4.5004 2.064 1.7737c1.1352 0.97551 3.5405 2.5771 5.3452 3.5591 3.6854 2.0053 10.702 6.5488 16.57 10.729 4.4753 3.1883 16.217 9.4774 17.711 9.4863 0.54972 0.004 2.207-2.5204 3.6828-5.6081zm-74.047 2.3724c0.52147-0.15273 1.9536-2.3335 3.1825-4.8461 2.4072-4.922 4.5923-7.8497 5.8585-7.8497 1.183 0 0.95592 3.2113-0.31717 4.4844-2.2039 2.2039 0.0751 2.1628 3.6041-0.0651 4.8601-3.068 10.63-9.5931 10.63-12.021 0-1.0842 1.0748-3.2487 2.3886-4.81 4.4674-5.3092 6.4537-10.088 4.193-10.088-2.9321 0-2.8012-0.665 3.1382-15.938 1.3034-3.3516 3.6575-8.7372 5.2313-11.968 1.5738-3.2309 2.8615-6.416 2.8615-7.0781s0.38254-1.6046 0.85008-2.0944c1.0882-1.14 7.8393-23.865 9.3163-31.359 0.89896-4.5614 3.2891-4.3505 3.8961 0.34378 0.44619 3.4506 0.54189 3.5408 1.9889 1.875 4.3203-4.9736 4.6255-8.349 0.82359-9.1094-3.8209-0.76418-3.635-2.796 0.8972-9.8083 3.8592-5.9709 5.1012-10.465 3.0872-11.171-0.70225-0.2462-1.1719 0.39942-1.1719 1.611 0 1.4215-0.48717 1.9276-1.6406 1.7045-1.2672-0.24513-1.5672-1.061-1.318-3.5844l0.32257-3.267-2.343 2.7126c-3.9423 4.5642-6.2831 2.5769-2.7015-2.2934 2.8328-3.852 3.0936-7.4505 0.53992-7.4505-2.2432 0-1.417-2.9211 1.8484-6.5355l3.1453-3.4815-0.43895-18.663c-0.24143-10.265-0.81307-19.064-1.2703-19.554-0.49282-0.52794-0.83136 0.72478-0.83136 3.0763 0 2.7725-0.45192 4.1404-1.5009 4.5429-2.4453 0.93835-3.2771-1.6486-2.6595-8.2714 0.61816-6.6287-0.50217-10.486-2.7904-9.6084-1.7529 0.67267-2.7288-1.1273-1.6532-3.0493 1.187-2.1211-0.35622-7.3514-3.55-12.031-7.4864-10.97-8.1783-26.702-2.3717-53.924 1.9318-9.0566 16.129-33.75 19.404-33.75 2.2396 0 2.2189 0.0723-1.8072 6.3099-1.9201 2.9748-3.3794 5.7769-3.243 6.2267 0.13645 0.44984-0.62198 3.6139-1.6854 7.0312-4.1141 13.221-4.7396 15.825-5.5452 23.088-1.1378 10.257-0.47149 28.314 1.3251 35.912 0.81614 3.4515 1.6971 7.286 1.9576 8.5213 0.47136 2.2345 0.48779 2.2297 3.225-0.9375 3.8223-4.4227 5.647-2.381 4.4475 4.9766-1.599 9.808-1.9767 16.979-0.85783 16.288 0.58018-0.35856 1.0549-1.4708 1.0549-2.4716 0-1.1973 0.64409-1.8197 1.8832-1.8197 1.7304 0 1.8342 0.41701 1.2789 5.1412-0.41421 3.5243-0.23637 5.5844 0.56544 6.5506 0.70643 0.8512 0.87382 2.0639 0.42265 3.062-1.1544 2.5537-1.3527 7.3384-0.74727 18.032l0.55581 9.8172 2.7991-3.4891c1.5395-1.919 3.3909-3.4891 4.1144-3.4891 2.4608 0 1.3255 3.0454-2.6691 7.1596-2.5792 2.6564-4.1826 5.2728-4.5465 7.4186l-0.56208 3.3148 2.4884-2.384c2.6824-2.5699 4.7302-3.0948 4.7284-1.2122-0.00094 1.0741-1.2448 2.7747-6.6109 9.0395l-1.9209 2.2426 2.266 2.4449c4.9444 5.3347 4.9028 8.9534-0.19144 16.644-3.5608 5.3757-3.5583 5.215-0.10409 6.744 1.5469 0.68471 2.8125 1.7909 2.8125 2.4581 0 2.1651-2.6119 7.4781-4.8432 9.8517-1.1973 1.2737-2.9621 3.8049-3.9219 5.625-0.95971 1.8201-2.4958 4.153-3.4135 5.1842-0.91767 1.0312-1.9629 2.9297-2.3226 4.2188-4.5937 16.459-8.7289 28.808-11.93 35.625-1.5737 3.3516-3.2758 6.9927-3.7826 8.0914-1.021 2.2138-0.20065 5.9711 1.3037 5.9711 0.53019 0 2.2094 0.88685 3.7316 1.9708 2.4287 1.7294 20.531 10.937 25.647 13.045 1.0312 0.42492 4.3518 1.8609 7.3789 3.1911 6.0199 2.6452 9.0315 3.0614 9.0198 1.2466-0.007-1.1815 4.4812-12.978 7.5804-19.922 3.2631-7.3106 6.4897-15.608 6.4954-16.702 0.003-0.61054 0.57085-2.1929 1.2615-3.5163 1.0222-1.9589 2.3456-5.7826 2.8986-8.375 0.19249-0.90247 5.3936-17.395 7.2002-22.832 1.003-3.0183 1.5651-6.3024 1.2491-7.298-0.33525-1.0563 0.22312-3.1622 1.3407-5.0563 5.5533-9.4121 10.289-39.251 9.0716-57.158-0.35059-5.1562-0.57468-14.859-0.49796-21.562 0.0767-6.7031 0.13704-13.875 0.13405-15.938-0.01-6.6659-1.1144-28.979-1.5782-31.875-0.24767-1.5469-0.87785-6.6094-1.4004-11.25-0.52253-4.6406-1.3624-11.391-1.8663-15-0.50393-3.6094-1.3665-10.74-1.9168-15.846-1.5808-14.667-8.5053-37.093-16.094-52.123-1.9525-3.8672-3.5518-7.5586-3.554-8.2031-0.002-0.64453-0.34475-1.1719-0.76114-1.1719-0.76904 0-2.3472-3.2747-5.6475-11.719-1.0076-2.5781-2.8944-7.0078-4.1929-9.8438-1.2984-2.8359-2.6648-6.8438-3.0363-8.9062-1.1718-6.5055-3.8004-9.123-5.7727-5.7486-0.41234 0.70548-4.7408 4.299-9.6188 7.9856s-12.942 10.387-17.921 14.889c-4.9785 4.5025-10.499 9.2955-12.267 10.651-3.5858 2.749-6.7199 10.001-3.7691 8.7216 3.8268-1.6592 10.506-2.6319 11.467-1.6701 1.0403 1.0403-5.7889 10.64-7.5694 10.64-0.50363 0-0.9157 0.44677-0.9157 0.99283s0.40248 0.74409 0.89438 0.44006c0.49192-0.30401 1.9554-0.28646 3.2522 0.039l2.3578 0.59177-1.8558 3.4213c-1.0207 1.8817-2.3787 4.1676-3.0178 5.0799-0.94893 1.3544-0.86116 2.185 0.47856 4.5291 2.9077 5.0874 0.63448 12.417-5.7132 18.422-2.2616 2.1394-2.763 3.0469-1.6836 3.0469 2.2428 0 1.8796 2.5634-0.54722 3.8622-1.1465 0.61361-4.2051 3.0967-6.7969 5.518s-5.556 4.6284-6.5873 4.9047c-1.0312 0.27631-2.6133 0.80632-3.5156 1.1778-2.0779 0.85544-2.2536-1.5994-0.23437-3.2752 0.77344-0.6419 1.4012-1.6428 1.3951-2.2242-0.007-0.5814-1.9578 0.96424-4.337 3.4347-4.8382 5.0238-5.9993 5.16-7.12 0.83503-0.42772-1.6506-1.3892-2.9831-2.1524-2.9831-1.665 0-1.8085-2.0085-0.25445-3.5625 0.875-0.875 0.85271-1.125-0.1003-1.125-0.70399 0-0.99571-0.59829-0.68567-1.4062 0.3049-0.79459 0.0223-1.4062-0.6497-1.4062-0.65413 0-1.2241 0.94922-1.2666 2.1094-0.0924 2.5185-1.4665 13.175-3.5726 27.706-0.84473 5.828-1.4027 10.968-1.2398 11.422 0.345 0.9627 8.6811-8.8509 15.762-18.555 4.4795-6.1395 7.5033-8.4299 7.5033-5.6836 0 1.5447-3.5873 7.2036-7.6858 12.124-1.9603 2.3535-3.5642 4.7177-3.5642 5.2537 0 0.53606-1.1472 2.1964-2.5492 3.6897-11.065 11.784-13.357 16.309-8.2614 16.309 1.7604 0 2.3732 0.49174 2.3732 1.9044 0 2.3953-2.0759 3.2432-4.6142 1.8848-1.5015-0.80357-1.9587-0.76637-1.9938 0.16218-0.17899 4.7378-1.899 19.797-2.6672 23.353-0.51517 2.3846-1.1253 7.5606-1.3559 11.502-0.23058 3.9418-0.92234 7.7731-1.5372 8.514-0.6149 0.74091-0.91176 1.682-0.65968 2.0913 0.25207 0.40931-0.16199 4.3301-0.92014 8.7129-0.75814 4.3828-1.4967 11.807-1.6412 16.499-0.29641 9.6248-0.67854 10.688-3.8406 10.688-9.5434 0-12.304 13.456-3.8348 18.691 11.518 7.1188 22.355-9.2918 12.25-18.552-3.7073-3.3975-3.3497-5.5256 0.75542-4.4953 12.515 3.141 8.9147 25.658-4.6017 28.781-15.839 3.6601-24.894-23.199-9.1566-27.161l3.987-1.004-0.40833-4.9264c-0.22456-2.7095-1.4571-14.84-2.739-26.958-1.2819-12.117-2.4371-24.141-2.567-26.719l-0.23632-4.6875-3.5239 4.6875c-11.481 15.271-19.125 37.021-16.321 46.439l1.2461 4.186 0.70223-3.0469c1.5648-6.7896 4.0379-3.8198 3.5687 4.2855-0.32973 5.6959-0.0681 8.0216 1.1723 10.42 1.0477 2.026 1.2794 3.4052 0.67387 4.0108-1.4436 1.4436-4.4462 0.018-5.8912-2.797-1.8272-3.5595-2.3273 10.962-0.76753 22.284 0.60381 4.3828 1.4092 10.711 1.7897 14.062 0.77548 6.8298 1.8212 10.47 4.7395 16.498 1.9123 3.9503 3.6098 5.7977 2.3782 2.5882-0.79614-2.0747 0.22788-5.0242 1.7443-5.0242 2.646 0 3.6364 2.6649 5.8364 15.703 0.85302 5.0555-3.5644 2.8495-5.5184-2.7558-1.15-3.2988-4.4923-3.6916-4.4707-0.52546 0.0179 2.6327 0.88452 3.9333 3.1893 4.7866 1.3699 0.50721 1.5372 0.92572 0.70313 1.7597-1.6107 1.6107-1.342 4.7184 0.88991 10.294 1.0913 2.7261 2.7176 7.9097 3.614 11.519 0.89642 3.6094 2.7457 8.7633 4.1096 11.453 1.3638 2.6899 2.4797 5.5777 2.4797 6.4174 0 1.8986 9.1644 16.975 13.634 22.43l3.3156 4.0463 5.8221-0.45224c3.2021-0.24872 6.2487-0.57719 6.7702-0.72992zm65.14-117.2c0-0.75674 2.2148-3.0542 4.9219-5.1055 2.707-2.0513 5.6714-4.6141 6.5875-5.6953 1.8361-2.1669 3.4906-1.7669 3.4906 0.8439 0 2.5026-9.8836 11.333-12.685 11.333-1.4103 0-2.3153-0.53779-2.3153-1.3759zm0.5198-87.604c-1.5752-2.5487 2.3281-21.88 6.7368-33.364 1.7815-4.6406 4.0809-11.074 5.1098-14.297 1.5098-4.7288 5.5156-8.8704 5.4407-5.625-0.003 0.1289-1.2916 4.2422-2.8637 9.1406-4.1678 12.986-7.3893 25.499-9.1691 35.613-1.5142 8.6044-3.3587 11.599-5.2545 8.532zm30.766-31.179c0.2759-8.9359 0.77424-21.521 1.1074-27.966 0.33318-6.4453 0.6694-15.938 0.74716-21.094 0.11529-7.6455 0.4008-9.375 1.5476-9.375 2.2189 0 2.9972 14.272 1.8406 33.75-0.5511 9.2812-1.1498 22.148-1.3305 28.594-0.31399 11.2-0.41888 11.732-2.3712 12.028l-2.0427 0.30965zm-58.765-68.883c-0.82232-0.82232 5.3324-12.463 10.822-20.468 9.9688-14.537 29.404-30.325 31.287-25.416 0.35941 0.93662-0.55829 2.3661-2.5828 4.0231-8.9587 7.3326-30.208 31.264-35.073 39.498-1.6862 2.8545-3.1733 3.6436-4.4536 2.3632zm-67.504 290.53c-0.39012-2.2521-5.2311-11.294-5.2854-9.8715-0.0508 1.3322 4.4892 11.512 5.1342 11.512 0.23947 0 0.30751-0.73828 0.1512-1.6406zm-77.956-17.99c-2.1297-4.1183-8.0924-7.8477-6.6855-4.1814 1.1113 2.896 4.7978 6.8338 6.4458 6.8851 1.5411 0.048 1.5589-0.1528 0.23973-2.7037zm-17.267-11.073c1.3202-3.4121 1.7128-5.1806 2.7575-12.422 0.48352-3.3516 0.99629-6.7325 1.1394-7.5131 0.86054-4.6922 13.236-16.862 17.146-16.862 9.6755 0 9.5106 5.1947-0.50536 15.917-4.2661 4.5669-8.707 14.181-7.7478 16.774l0.78497 2.122 2.603-2.6031c2.3698-2.3698 2.4625-2.7058 1.0341-3.7503-2.087-1.5261-0.79005-3.4318 1.9758-2.9031 1.7567 0.33581 2.7073-0.35438 4.7207-3.4273 3.5112-5.3591 7.3228-8.8485 10.401-9.5219 5.2895-1.1572 7.6415-2.5236 10.53-6.1177 3.0216-3.7599 2.6678-5.2081-0.43478-1.7798-1.2469 1.3778-1.9924 1.6133-2.7234 0.86039-0.72375-0.74548-0.15052-1.7586 2.0403-3.606 1.6758-1.4131 3.0469-3.1196 3.0469-3.7923 0-0.67265-1.909 0.53662-4.2421 2.6873-7.155 6.5952-7.752 3.6262-0.70021-3.4822 2.8249-2.8476 4.0468-5.8423 2.3642-5.7941-0.38671 0.0111-2.5857 2.1205-4.8866 4.6875-4.9002 5.4669-8.1755 6.5547-5.6765 1.8852 0.77369-1.4456 0.62354-1.6435-0.9375-1.2353-2.4909 0.65139-2.4026-1.3766 0.17969-4.1253 2.1802-2.3208 4.1558-2.806 4.7058-1.156 0.51392 1.5418 6.4548-2.1565 6.1466-3.8263-0.17276-0.93607-1.8693-1.6032-5.0741-1.9954-2.648-0.32405-5.2751-0.8738-5.8379-1.2217-2.4931-1.5408-15.984 1.5838-17.625 4.0822-3.4311 5.2224-7.791 13.445-7.791 14.694 0 0.7239-0.53133 1.3162-1.1807 1.3162-3.2988 0-5.4522 6.5329-6.3352 19.219-0.39479 5.6719-1.0238 11.473-1.3977 12.891-0.37395 1.418-0.40936 2.5781-0.0787 2.5781 0.33068 0 1.0501-1.1602 1.5988-2.5781zm25.2-1.18c0-0.51563-0.84375-0.9375-1.875-0.9375s-2.1809-0.0316-2.5547-0.0703c-0.37383-0.0386-0.83086 0.3832-1.0156 0.9375-0.19117 0.57348 0.90982 1.0078 2.5547 1.0078 1.5898 0 2.8906-0.42188 2.8906-0.9375zm24.55-12.212c-0.54913-1.4844-1.0259-1.8111-1.5071-1.0325-0.38711 0.62636-0.18553 1.7634 0.44795 2.5267 1.5478 1.8649 2.0432 1.166 1.0591-1.4942zm11.313 0.50598c2.7572-2.4267 2.7125-6.5392-0.21294-19.593-0.82299-3.6724-7.3666-23.06-8.0574-23.873-0.93743-1.1031-6.9914 2.0719-6.5963 3.4594 0.24367 0.85577 1.7085 5.7747 3.2552 10.931 2.4689 8.2309 3.2148 12.148 4.1944 22.031 0.80392 8.1105 3.4021 10.578 7.4171 7.0443zm14.132-5.7345c1.3323-0.77525 1.7841-2.404 2.0318-7.3258 0.1752-3.4809 0.54616-6.5565 0.82436-6.8347 0.27819-0.27819-0.46927-1.8248-1.661-3.437-2.2391-3.029-4.8202-10.12-5.7086-15.684-2.1712-13.598-1.4046-12.708-7.9454-9.2217-4.5007 2.3989-5.4436 3.2866-4.7919 4.5118 2.5249 4.7471 5.778 17.235 7.1356 27.392 2.0152 15.076 1.573 14.015 5.2916 12.698 1.7107-0.60595 3.8813-1.5503 4.8236-2.0986zm-60.3-0.21c0-0.4184 0.90645-1.7337 2.0143-2.9229 2.1151-2.2703 3.1557-8.095 1.6162-9.0465-1.3833-0.85493-3.6306 1.4669-3.6306 3.7511 0 1.1228-0.34175 2.4422-0.75944 2.9321-2.3659 2.7746-2.9587 6.0469-1.0955 6.0469 1.0202 0 1.8549-0.34233 1.8549-0.76072zm55.588-77.686c-0.32945-0.85855 0.0491-1.9719 0.87608-2.5766 1.272-0.93014 1.0945-1.4696-1.4039-4.2659l-2.8602-3.2011 0.54854 5.3148c0.3017 2.9232 0.82023 5.7544 1.1523 6.2917 0.91806 1.4854 2.3485 0.16028 1.6872-1.563zm31.69-25.282c0.91436-6.4251 4.0911-31.023 5.4916-42.522 0.40821-3.3516 1.0576-7.3594 1.4432-8.9062 0.61815-2.4801-0.0993-1.9887-6.071 4.1584l-6.772 6.9708 0.61856 8.0292c0.3402 4.416 1.2273 13.448 1.9714 20.071 0.74405 6.6233 1.3528 13.76 1.3528 15.859 0 5.4819 0.90385 3.7981 1.9654-3.6614zm-15.21-35.02c6.4079-8.9195 6.3666-8.707 5.1178-26.3l-0.62288-8.7752-1.2975 3.7093c-0.71364 2.0401-2.1306 6.8733-3.1489 10.741-1.0183 3.8672-2.2251 7.875-2.6818 8.9062-1.3927 3.1446-5.712 17.634-6.1481 20.625-0.2256 1.5469-0.6382 4.0781-0.91689 5.625-0.38447 2.134 0.0336 1.6816 1.7334-1.875 1.232-2.5781 4.8163-8.2734 7.965-12.656zm16.77-19.507 6.6093-7.3197 1.5136-9.7897c0.83246-5.3843 2.3271-16.134 3.3214-23.888 0.99433-7.7543 2.0686-14.778 2.3872-15.608 0.3186-0.83026 0.12864-1.7881-0.42214-2.1285-0.58637-0.36239-1.0014 0.18113-1.0014 1.3114 0 2.0231-1.3528 2.5962-2.3438 0.99283-1.0979-1.7765-2.2015-0.928-3.3531 2.5781-0.63514 1.9336-2.4128 5.8359-3.9502 8.6719-12.33 22.743-15.022 32.546-9.8188 35.762 0.78268 0.48372 0.75644 1.0284-0.0992 2.0594-1.2288 1.4806-1.3312 14.679-0.11383 14.679 0.364 0 3.636-3.2938 7.2711-7.3197zm34.033-55.099c0.73912-0.8906 2.1291-1.3097 3.4845-1.0506 3.6773 0.70296 15.264-11.968 16.63-18.185 0.72797-3.3145-0.93437-5.8149-3.3551-5.0466-2.1997 0.69816-3.2381-1.1226-1.6983-2.978 1.0308-1.242 0.89659-1.7363-0.85679-3.1561-2.5815-2.0904-2.6585-4.2864-0.20397-5.8192 1.0312-0.64402 1.875-1.6144 1.875-2.1565 0-0.54204 1.8984-2.8487 4.2188-5.1259 5.3391-5.2399 5.3131-6.0275-0.12192-3.6977-5.307 2.2748-8.7465 5.3987-8.7681 7.9634-0.009 1.057-0.39376 2.3226-0.85523 2.8125-0.5007 0.53149 0.46552 4.8072 2.3962 10.604 3.3925 10.185 3.4361 10.964 0.56224 10.052-2.4972-0.79257-7.2974-15.911-6.5379-20.591 0.30281-1.866 0.26067-3.3918-0.0937-3.3907-0.95645 0.003-11.672 5.6734-13.3 7.0382-0.77344 0.64825-3.852 1.8782-6.8413 2.7333-3.3596 0.96099-5.6232 2.1662-5.9278 3.1562-0.27102 0.88084-0.88741 2.3398-1.3698 3.2422-0.5602 1.048-0.54194 1.6406 0.0505 1.6406 0.51017 0 1.1923-1.0547 1.5158-2.3438 0.3681-1.4666 1.2519-2.3438 2.3616-2.3438 2.3326 0 2.3099 0.16359-1.5079 10.847-3.7391 10.464-3.5747 9.7778-2.3437 9.7778 0.51562 0 0.9375-0.74988 0.9375-1.6664 0-0.91653 0.73022-2.7089 1.6227-3.9831 0.89249-1.2742 1.672-2.7392 1.7322-3.2555s0.17375-1.4661 0.25229-2.1106c0.24562-2.0158 2.9553-1.2973 2.9553 0.78363 0 6.6986 3.1382 13.77 6.9655 15.696 4.7073 2.3685 4.716 2.3692 6.2221 0.55457zm-9.4376-5.4384c0-3.3104 10.018-7.8238 20.625-9.2916 5.1034-0.70629 0.0486 2.9939-8.9062 6.5194-11.524 4.5372-11.719 4.5832-11.719 2.7722zm-5.2065 0.1231c-1.2948-4.2322-2.235-5.0754-2.265-2.0312-0.0291 2.9516 0.56414 4.1406 2.0659 4.1406 0.46444 0 0.55404-0.94922 0.1991-2.1094zm35.225-28.382c1.673-2.0158 0.47764-2.7751-1.8272-1.1608-1.0613 0.74338-1.6511 1.6302-1.3106 1.9706 0.96747 0.96748 1.8523 0.73911 3.1378-0.80987zm-8.7736-14.545c3.2344-6.6754 0.67336-5.38-8.0818 4.0882l-4.1803 4.5207 5.1178-2.2132c4.2641-1.844 5.4558-2.9109 7.1443-6.3957zm1.2518-7.4638c0.85392 0 7.2215-5.6232 14.15-12.496 10.57-10.485 18.183-16.837 30.269-25.258 1.7131-1.1935 1.7063-1.3323-0.25343-5.1736-2.4995-4.8994-1.8746-5.0045-9.321 1.5668-3.4366 3.0327-7.9358 6.4303-9.9983 7.5502s-5.8594 3.4934-8.4375 5.2743-7.6406 4.7708-11.25 6.6441-9.3614 5.2452-12.782 7.493c-3.4209 2.2478-6.6756 4.0869-7.2326 4.0869-3.513 0-3.5749 8.869-0.11488 16.464l1.9325 4.2422 5.7428-5.1969c3.1585-2.8583 6.4414-5.1969 7.2954-5.1969zm-27.09-8.5674c1.7527-0.58706 4.0577-1.8527 5.1222-2.8125 1.0645-0.95983 2.7616-1.7451 3.7714-1.7451s4.1466-1.5224 6.9708-3.383c2.8242-1.8607 7.2442-4.4423 9.8224-5.737 10.484-5.265 30.975-19.323 38.147-26.172 4.3121-4.1177 6.2378-17.869 2.6344-18.812-2.2813-0.59658-2.3827-1.9068-0.32345-4.1822 0.85335-0.94294 1.1321-1.7144 0.61934-1.7144-0.51271 0-2.4935 1.6875-4.4018 3.75-4.976 5.3782-7.4426 4.9296-3.1709-0.57669l2.0981-2.7046-2.8154 2.3438c-1.5485 1.2891-4.2856 3.665-6.0825 5.2798s-4.5327 4.063-6.0796 5.4405l-2.8125 2.5044 3.0469-1.4802c2.8775-1.3979 3.0469-1.383 3.0469 0.26843 0 2.2332-3.7693 3.9598-10.071 4.6133l-4.9152 0.50968-1.3987-3.3476c-0.7693-1.8412-1.8148-3.6048-2.3233-3.919-0.52083-0.3219 0.18938-1.8333 1.6264-3.4612 1.403-1.5894 2.4398-3.2766 2.304-3.7494-0.13587-0.47277 0.19537-1.6862 0.7361-2.6966 1.1566-2.1612 3.9423-2.5444 3.1312-0.43077-0.85322 2.2234 0.76711 1.6323 4.7411-1.7298 5.3008-4.4846 5.8375-9.9889 0.97407-9.9889-1.7829 0-3.2417 0.44678-3.2417 0.99283 0 0.54606 0.33655 0.78483 0.74789 0.53061s1.3487-0.0908 2.0831 0.36299c1.1228 0.69391 1.0892 0.91961-0.21096 1.4185-6.6774 2.5623-9.2317-5.9787-2.9849-9.9809 1.9146-1.2267 4.4436-2.8519 5.6198-3.6116 3.6638-2.3663 3.7288-0.12309 0.0834 2.8817-4.3103 3.5529-4.3277 4.1972-0.11686 4.3166 8.1865 0.23205 7.0039 12.034-1.705 17.017-6.2638 3.5838-8.4445 5.93-8.045 8.6558 1.4108 9.6265 18.568-10.954 18.045-21.646-0.67658-13.836-5.0324-19.374-10.872-13.822-3.093 2.9407-7.5549 6.3222-8.342 6.3222-2.1069 0-0.54722-2.7781 2.9014-5.168 4.0816-2.8286 4.533-4.4512 0.50386-1.8112-3.1953 2.0936-4.2634 1.0092-1.3568-1.3776 1.3623-1.1186 3.0381-1.6478 4.2703-1.3484 1.3189 0.32039 2.7395-0.21872 4.0625-1.5417 2.4133-2.4133 1.7233-3.8145-0.76809-1.5599-2.2861 2.0689-4.6559 2.1712-2.96 0.12785 2.1032-2.5342 0.18826-2.589-2.526-0.07221-2.8364 2.63-3.6495 2.9162-4.4777 1.5762-0.29316-0.47434 0.52569-1.6952 1.8197-2.713s2.3527-2.1063 2.3527-2.4188c0-1.3308-2.8745-0.39501-5.454 1.7756-2.8371 2.3873-4.8585 3.0141-4.8585 1.5066 0-0.46046 0.68237-1.099 1.5164-1.4191 1.2711-0.48776 1.1194-0.89411-0.9375-2.5121-1.3496-1.0616-2.4539-2.3516-2.4539-2.8666 0-1.5351-2.7208-3.7823-3.7839-3.1253-0.54218 0.33508-1.661 0.04888-2.4862-0.636-1.3184-1.0941-1.4195-0.99016-0.83326 0.85679 0.94904 2.9902-1.6607 2.7825-3.0386-0.24173-1.2438-2.7299-2.2683-2.9246-4.3635-0.82941-1.7682 1.7682-4.703-0.16771-6.204-4.0925-0.4437-1.1602-1.5306-2.1094-2.4154-2.1094-1.4681 0-1.4766 0.1024-0.0971 1.1719 2.2441 1.7398 5.4093 7.9279 5.4093 10.575 0 3.9245-2.2299 2.5523-4.6322-2.8505-1.2587-2.8307-2.6326-5.1467-3.0531-5.1467-0.42052 0-1.6816-1.0547-2.8024-2.3438s-2.7001-2.3309-3.5094-2.3152c-1.1945 0.02314-1.1494 0.21582 0.23916 1.0233 1.9376 1.1267 5.6037 8.9815 4.7994 10.283-0.9524 1.541-2.2211 0.89574-3.6422-1.8525-1.5214-2.942-9.9248-8.1118-13.52-8.3174-1.2178-0.06963-3.0134-0.8498-3.9901-1.7337-0.97672-0.88391-1.9944-1.3886-2.2615-1.1215-0.26711 0.26711 0.15735 1.0193 0.94325 1.6715 0.78591 0.65224 1.4289 1.5561 1.4289 2.0086 0 1.3295-2.483 0.94313-3.75-0.58354-1.7852-2.151-3.6924-1.6823-4.7682 1.1719-0.53447 1.418-1.5787 3.8031-2.3206 5.3003-0.76808 1.5502-1.3488 5.425-1.3488 9 0 7.0615-3.2266 13.039-8.2336 15.254-1.4012 0.61982-3.1051 1.6592-3.7865 2.3098-0.68136 0.65054-1.6112 1.1828-2.0664 1.1828-0.45517 0-2.3566 2.0025-4.2254 4.45l-3.3978 4.45 2.6518 1.0781c5.9136 2.4042 14.371 3.0234 14.371 1.0521 0-1.2027 0.53994-1.6888 1.6406-1.4768 3.7911 0.7301 2.0552 5.9477-1.8765 5.6401-5.5114-0.43115-7.0172 3.6118-2.7615 7.4143 1.6648 1.4875 3.4991 2.7046 4.0761 2.7046 0.57703 0-0.0624-0.87437-1.421-1.943-2.5784-2.0282-3.366-5.557-1.2402-5.557 0.67648 0 2.1657 1.2656 3.3093 2.8125 1.1437 1.5469 2.6996 2.8125 3.4576 2.8125 1.6761 0 1.8447 2.5146 0.2063 3.078-1.3106 0.45066 0.9267 0.15623 2.9297-0.38553 2.715-0.73434 2.0355 2.0674-0.78945 3.2552-2.5768 1.0835-2.7629 1.3896-1.488 2.4477 1.8525 1.5375 1.8403 2.7525-0.0488 4.8399-1.3885 1.5343-1.3568 1.8735 0.40641 4.3498 2.9208 4.102 3.4828 7.4871 1.59 9.5786-3.6722 4.0578-2.438 7.6799 3.6753 10.786 4.3322 2.2014 5.7924 3.5001 6.5625 5.8369 2.2273 6.7581 11.95 11.067 19.366 8.5833zm-8.9884-45.788c-0.78659-1.2727 1.1443-3.77 2.9149-3.77 1.8071 0 1.608 1.2979-0.49047 3.197-1.2203 1.1043-1.9844 1.2849-2.4244 0.57299zm-8.8888-3.5356c0.0539-1.2708 2.4983-3.9844 3.5892-3.9844 1.5818 0 1.2983 1.3765-0.64591 3.136-1.8319 1.6578-2.9917 1.9922-2.9432 0.84842zm6.6523-0.89184c2.6937-3.3391 7.8207-7.78 8.982-7.78 1.2539 0 1.7548 2.7957 0.5078 2.8342-0.38671 0.012-2.3317 1.4885-4.3223 3.2812-3.8677 3.4834-7.6063 4.6876-5.1675 1.6645zm-11.314-1.4519c0.0309-0.64453 2.3794-3.0703 5.2192-5.3906 2.8397-2.3203 5.8731-4.8998 6.7408-5.7322 2.7599-2.6476 6.019-4.0389 5.6458-2.4102-0.71428 3.1171-17.733 16.199-17.606 13.533zm-0.44546-4.3248c-0.27503-0.44501 1.2043-2.3861 3.2875-4.3135 2.0831-1.9274 3.5621-3.7298 3.2865-4.0054-0.5862-0.5862-3.8738 1.508-6.9163 4.4057-2.0732 1.9745-5.5325 2.3927-4.1654 0.50354 2.4065-3.3255 13.567-11.861 14.409-11.02 0.6535 0.6535 0.27996 1.4344-1.1729 2.4521-1.1725 0.82125-1.877 1.748-1.5655 2.0594 0.73576 0.73576 3.6944-0.87578 8.8928-4.8438 2.2996-1.7553 4.6392-2.9083 5.1992-2.5622 0.63088 0.38989 0.063 1.3728-1.493 2.5842-1.3811 1.0752-6.1085 5.0135-10.505 8.7518-8.5177 7.2419-8.4915 7.225-9.2562 5.9877zm12.758-1.1399c0.51771-1.5532 5.2748-4.1577 6.0953-3.3372 0.83564 0.83563-3.3088 4.2967-5.1825 4.3279-0.6875 0.0114-1.0983-0.43435-0.91281-0.9907zm-14.22-10.94c0.0108-1.188 6.5543-5.2365 7.2802-4.5043 0.37516 0.37842-0.58351 1.7028-2.1304 2.9431-2.7653 2.2172-5.1624 2.9439-5.1498 1.5612zm13.323-5.0667c0.56997-1.7099 4.483-2.8721 4.483-1.3315 0 0.70166-0.66731 1.5318-1.4829 1.8448-2.2747 0.87288-3.398 0.68069-3-0.51329zm24.926-5.0367c-0.88424-1.9407-0.72914-3.2544 0.85776-7.2656 1.0654-2.6931 2.1933-5.6699 2.5063-6.6151 1.6587-5.0092 4.6758 1.972 3.9256 9.0835-0.75257 7.1342-4.9626 9.9047-7.2897 4.7973zm-31.316 0.12358c-1.0283-2.6796 1.4921-9.0486 3.9506-9.9833 6.4703-2.46 8.7941 6.9169 2.5312 10.213-2.7857 1.4663-5.8729 1.3567-6.4818-0.23015zm-11.62-5.314c0-0.55245 0.63281-1.6373 1.4062-2.4107 0.77-0.774 1.4-2.82 1.4-4.549 0-2.9959 4.3637-8.9114 6.5736-8.9114 1.3415 0 5.0346 1.7235 6.9698 3.2527 3.0661 2.4229 0.4265 3.9149-3.1688 1.7911-3.8624-2.2816-5.9176-0.97898-6.823 4.3243-0.89544 5.2453-6.3641 10.833-6.3641 6.5024zm60.938-4.5202c0-0.46046 0.63281-1.08 1.4062-1.3768 0.8566-0.32871 1.4062-0.0015 1.4062 0.8372 0 0.75726-0.63281 1.3768-1.4062 1.3768-0.77344 0-1.4062-0.37674-1.4062-0.8372zm32.212 18.541c1.177 0.97681 1.9392 0.80578 4.349-0.97586 1.607-1.1881 2.4513-2.3171 1.876-2.5089-0.57523-0.19175-1.793 0.32747-2.7061 1.1538-0.91311 0.82635-2.1543 1.5025-2.7582 1.5025-1.4784 0-1.3999-2.5316 0.10754-3.469 1.7185-1.0687 5.3572-5.9638 5.3552-7.2043-0.003-1.4351-11.186 9.9115-11.22 11.384-0.0219 0.92867 0.35506 0.94067 1.771 0.0564 1.4088-0.87978 2.1084-0.86656 3.226 0.0609zm-2.2575-13.514c1.7799-1.7883 2.8118-3.2515 2.2933-3.2515-0.51856 0-2.374 1.4766-4.1232 3.2812-1.7492 1.8047-2.7812 3.2678-2.2933 3.2515 0.48786-0.0164 2.3433-1.4929 4.1232-3.2812zm-1.83-4.662c2.2324-2.3033 2.734-3.2812 1.6828-3.2812-0.82365 0-2.3688 1.4766-3.4335 3.2812-1.0648 1.8047-1.822 3.2812-1.6828 3.2812 0.13928 0 1.6844-1.4766 3.4335-3.2812zm36.014-0.33931c1.089-1.762-14.195-15.462-18.201-16.315-2.179-0.46406-6.3204-1.8373-10.781-3.5749-3.2846-1.2794-16.513-4.9952-21.366-6.0016-1.5266-0.31658-2.3591-0.95904-1.9985-1.5424 0.724-1.1715 6.6569-0.45587 14.805 1.7857 6.3712 1.7527 8.3192 0.55796 7.7386-4.7461-0.37797-3.4526-0.45117-3.4915-14.179-7.5344-33.641-9.9079-63.203-16.042-68.78-14.272-2.3294 0.73931-2.8303 9.8839-0.54142 9.8839 0.74392 0 1.3526 0.63281 1.3526 1.4062 0 1.0033-1.0208 1.4062-3.5625 1.4062-1.9594 0-3.9712 0.40872-4.4708 0.90826-0.49954 0.49954-6.8066 1.3203-14.016 1.8239-13.087 0.9142-24.849 3.8257-20.842 5.1593 0.90234 0.30032 2.3734 0.78211 3.2691 1.0706 4.3158 1.3903 21.483 2.1586 28.519 1.2763 6.264-0.78545 8.3289-0.68972 12.094 0.56067 2.4968 0.82931 6.7757 1.7145 9.5086 1.9671 11.328 1.0472 19.299 2.4143 27 4.631 11.603 3.34 14.82 4.2035 20.948 5.6233 3.5295 0.81767 6.9791 1.2711 7.6658 1.0075 0.68673-0.26352 1.7256 0.09563 2.3086 0.79811 0.58301 0.70248 2.8287 1.5689 4.9904 1.9253 2.1617 0.35642 4.3523 0.98096 4.8679 1.3879 1.4142 1.116 9.147 3.1494 11.022 2.8984 0.90612-0.12126 2.3067 0.43875 3.1124 1.2445 0.80571 0.80572 2.5956 1.7057 3.9775 2 4.1296 0.87939 6.8705 2.2342 6.3204 3.1242-0.2997 0.48493-1.9948 0.49265-4.0372 0.01838-4.6568-1.0814-5.7705-1.0232-3.6803 0.19215 3.37 1.9595 16.039 3.3699 16.955 1.8875zm-17.23-33.411c1.4762-3.0938 2.9342-6.8187 3.2402-8.2777l0.55627-2.6527-2.9133 1.7152c-1.6023 0.94338-3.5561 3.0669-4.3417 4.719-0.78564 1.6521-2.0224 3.4967-2.7483 4.0992-1.5727 1.3052-1.7455 7.6938-0.28211 10.428 0.98701 1.8442 1.1055 1.7839 2.4214-1.2335 0.76097-1.745 2.5914-5.7039 4.0675-8.7976zm-8.3894-6.3522c0.76633-4.7146 8.9842-20.905 13.074-25.757 0.67628-0.80242 0.68044-1.1719 0.0132-1.1719-0.53595 0-0.98206-0.52734-0.99136-1.1719-0.0242-1.6793-6.9172-7.1726-10.521-8.385-1.6805-0.56524-3.4772-1.3322-3.9929-1.7044-2.1532-1.5542-14.176-4.9218-21.803-6.1069-4.51-0.7012-11.37-1.9093-15.23-2.6854-10.82-2.1708-19.38-1.9137-27.55 0.827-6.0621 2.035-7.594 2.2165-11.866 1.4062-2.69-0.5116-5.28-0.9303-5.73-0.9303-1.8838 0-2.8917 5.846-3.0305 17.578l-0.14696 12.422 4.7112 0.0077c7.2812 0.01189 21.029 1.7348 26.742 3.3515 2.8359 0.80241 6.8438 1.9009 8.9062 2.441 2.0625 0.54013 5.6484 1.5468 7.9688 2.2372 2.3203 0.6903 8.108 2.3065 12.862 3.5916 4.7536 1.2851 9.4719 2.7802 10.485 3.3226 1.0133 0.54232 2.6084 1.0003 3.5447 1.0178 0.93625 0.01749 3.3898 0.85237 5.4523 1.8553 5.0699 2.4653 6.423 2.0568 7.106-2.1455zm-68.05-48.927c3.6526-1.1966 3.5795-1.2152-2.8125-0.71464-9.0624 0.70966-12.885 1.9234-6.0938 1.9346 2.8359 0.0047 6.8438-0.54431 8.9062-1.22z"/>
</svg>
